<?xml version="1.0" standalone="no"?>
<!DOCTYPE svg PUBLIC "-//W3C//DTD SVG 1.1//EN" "http://www.w3.org/Graphics/SVG/1.1/DTD/svg11.dtd" >
<svg xmlns="http://www.w3.org/2000/svg">
<metadata>Generated by IcoMoon</metadata>
<defs>
<font id="Travel-2" horiz-adv-x="1024">
<font-face units-per-em="1024" ascent="960" descent="-64" />
<missing-glyph horiz-adv-x="1024" />
<glyph unicode="&#x20;" horiz-adv-x="512" d="" />
<glyph unicode="&#xe900;" glyph-name="compass" d="M828.994 701.328c-70.636 70.636-160.7 114.27-258.14 126.968 9.458 10.496 16.142 23.39 18.922 37.43h50.592v30.088h-50.592c-7.046 38.11-39.234 64.186-77.778 64.186s-70.73-26.076-77.78-64.186h-50.592v-30.088h50.592c2.782-14.040 9.468-26.934 18.922-37.43-97.438-12.7-187.504-56.584-258.138-127.22-84.67-84.672-131.302-197.124-131.302-316.87s46.632-232.26 131.304-316.932c84.672-84.674 197.25-131.274 316.996-131.274s232.324 46.648 316.994 131.318c84.674 84.674 131.304 197.258 131.304 317.002s-46.63 232.334-131.304 317.008zM512 930.414c21.852 0 40.408-14.542 46.778-34.6h-62.824v-30.088h62.824c-6.37-18.052-24.926-33.598-46.778-33.598-27.098 0-49.142 22.548-49.142 49.644 0 27.098 22.044 48.642 49.142 48.642zM512-33.88c-230.604 0-418.212 187.61-418.212 418.212s187.608 418.212 418.212 418.212 418.212-187.61 418.212-418.212-187.608-418.212-418.212-418.212zM512 752.398c-202.954 0-368.066-165.114-368.066-368.066s165.112-368.068 368.066-368.068 368.066 165.114 368.066 368.066-165.114 368.068-368.066 368.068zM512 722.312c7.862 0 15.658-0.292 23.388-0.822l-23.388-46.774-23.388 46.774c7.73 0.53 15.526 0.822 23.388 0.822zM174.020 384.332c0 7.862 0.292 15.658 0.822 23.386l46.774-23.386-46.774-23.386c-0.528 7.728-0.822 15.522-0.822 23.386zM512 46.352c-7.862 0-15.658 0.292-23.388 0.822l23.388 46.774 23.388-46.774c-7.73-0.532-15.526-0.822-23.388-0.822zM811.878 228.568l-28.318 16.35-15.044-26.056 28.29-16.334c-26.47-41.322-61.68-76.532-103.002-103.002l-16.334 28.29-26.056-15.044 16.35-28.318c-31.034-16.184-64.876-27.684-100.592-33.576l-55.172 110.346-55.172-110.346c-35.714 5.89-69.558 17.388-100.592 33.576l16.35 28.318-26.056 15.044-16.334-28.29c-41.322 26.47-76.532 61.68-103.002 103.002l28.29 16.334-15.044 26.056-28.318-16.35c-16.184 31.034-27.684 64.876-33.576 100.59l110.346 55.174-110.346 55.174c5.89 35.714 17.39 69.558 33.576 100.59l28.318-16.35 15.044 26.056-28.29 16.334c26.47 41.322 61.68 76.532 103.002 103.002l16.334-28.29 26.056 15.044-16.35 28.318c31.034 16.184 64.876 27.686 100.592 33.576l55.172-110.348 55.172 110.346c35.716-5.89 69.558-17.388 100.592-33.576l-16.35-28.318 26.056-15.044 16.334 28.29c41.322-26.47 76.532-61.68 103.002-103.002l-28.29-16.334 15.044-26.056 28.318 16.35c16.184-31.034 27.684-64.876 33.574-100.59l-110.346-55.174 110.346-55.174c-5.89-35.712-17.39-69.554-33.574-100.588zM802.382 384.332l46.774 23.386c0.532-7.728 0.824-15.522 0.824-23.386s-0.292-15.658-0.824-23.386l-46.774 23.386zM728.554 620.226l-284.268-168.18-168.18-284.264 19.34-19.346 284.268 168.18 168.18 284.264-19.34 19.346zM333.688 206.020l124.654 210.694 11.446-11.446c-3.146-6.312-4.922-13.42-4.922-20.938 0-25.992 21.146-47.136 47.136-47.136 7.518 0 14.626 1.78 20.938 4.922l11.446-11.446-210.698-124.65zM494.95 384.332c0 9.402 7.65 17.050 17.050 17.050 9.402 0 17.050-7.648 17.050-17.050s-7.65-17.050-17.050-17.050-17.050 7.648-17.050 17.050zM565.66 351.948l-11.446 11.446c3.144 6.312 4.922 13.422 4.922 20.938 0 25.992-21.146 47.136-47.136 47.136-7.518 0-14.626-1.78-20.938-4.922l-11.446 11.446 210.696 124.652-124.652-210.696zM495.958 207.82h30.088v-32.094h-30.088v32.094zM495.958 592.936h30.088v-32.094h-30.088v32.094zM303.4 398.372h32.094v-30.088h-32.094v30.088zM688.516 398.372h32.094v-30.088h-32.094v30.088z" />
<glyph unicode="&#xe901;" glyph-name="passport" d="M561.096 710.726l-42.692-42.69 21.258-21.254 21.434 21.436 21.434-21.436 21.258 21.254zM561.096 646.6l-42.692-42.69 21.258-21.254 21.434 21.436 21.434-21.436 21.258 21.254zM721.41 545.19h30.058v-32.062h-30.058v32.062zM721.41 609.316h30.058v-32.062h-30.058v32.062zM721.41 481.064h30.058v-192.376h-30.058v192.376zM815.592 960h-350.684v-180.852l27.256-25.552-27.256-25.552v-152.796h-256.5v-639.248h478.936v288.564h128.25v503.48l-27.256 25.552 27.256 25.552v180.852zM657.284-33.942h-418.818v579.132h418.818v-579.132zM785.534 792.17l-32.062-30.058v-17.030l32.062-30.058v-460.402h-98.192v320.626h-192.376v139.776l32.062 30.058v17.030l-32.062 30.058v137.772h290.568v-137.772zM480.94 448c-79.004 0-143.28-64.276-143.28-143.28s64.276-143.28 143.28-143.28 143.28 64.276 143.28 143.28c0 79.004-64.276 143.28-143.28 143.28zM368.746 288.688h33.464c1.68-30.058 8.44-58.912 19.476-81.398-28.302 17.454-48.356 47.332-52.94 81.398zM402.21 318.748h-33.464c4.582 36.070 24.638 63.944 52.94 81.398-11.036-22.488-17.798-49.336-19.476-81.398zM464.908 197.822c-4.008 4.978-11.282 12.256-16.37 22.432-9.328 18.656-14.612 42.384-16.22 68.436h32.59v-90.868zM464.908 318.748h-32.59c1.608 28.054 6.892 50.782 16.22 69.438 5.088 10.176 12.362 18.456 16.37 23.434v-92.872zM593.132 318.748h-33.464c-1.678 32.062-8.44 58.912-19.476 81.398 28.302-17.454 48.358-45.328 52.94-81.398zM512.338 220.254c-5.088-10.176-11.36-17.454-17.372-22.432v90.868h34.594c-1.606-26.052-7.894-49.78-17.222-68.436zM494.966 318.748v92.872c6.012-4.978 12.284-13.258 17.372-23.434 9.328-18.656 15.614-41.382 17.222-69.438h-34.594zM540.194 207.29c11.036 22.488 17.796 51.34 19.476 81.398h33.464c-4.586-34.066-24.64-63.944-52.94-81.398zM272.532 481.064h30.058v-448.876h-30.058v448.876zM561.096 767.624h32.062v-30.058h-32.062v30.058zM625.222 767.624h32.062v-30.058h-32.062v30.058zM689.346 767.624h32.062v-30.058h-32.062v30.058zM384.752 126.372h192.376v-30.058h-192.376v30.058zM416.814 62.246h128.25v-30.058h-128.25v30.058z" />
<glyph unicode="&#xe902;" glyph-name="bridge" d="M1024 585v30c-132.888 0-241 108.112-241 241h-30c0-132.888-108.112-241-241-241s-241 108.112-241 241h-30c0-132.888-108.112-241-241-241v-30c16.728 0 34 1.534 48 4.45v-167.45h-48v-30h1024v30h-50v167.45c16-2.916 33.272-4.45 50-4.45zM112 422h-34v174.758c12 3.568 24 7.906 34 12.956v-187.714zM176 422h-34v203.904c12 7.476 24 15.85 34 25.048v-228.952zM240 422h-34v259.308c14 15.552 26 32.592 34 50.842v-310.15zM304 422h-34v310.15c10-18.25 22-35.29 34-50.842v-259.308zM368 422h-34v228.952c12-9.2 24-17.572 34-25.048v-203.904zM432 422h-34v187.714c12-5.050 24-9.388 34-12.956v-174.758zM496 422h-34v167.45c12-2.038 24-3.396 34-4.028v-163.422zM560 422h-34v163.422c12 0.632 24 1.99 34 4.028v-167.45zM624 422h-34v174.758c12 3.568 24 7.906 34 12.956v-187.714zM688 422h-34v203.904c12 7.476 24 15.85 34 25.048v-228.952zM752 422h-34v259.308c14 15.552 26 32.592 34 50.842v-310.15zM816 422h-34v310.15c10-18.25 22-35.29 34-50.842v-259.308zM880 422h-34v228.952c12-9.2 24-17.572 34-25.048v-203.904zM944 422h-34v187.714c12-5.050 24-9.388 34-12.956v-174.758zM1024 328v30h-1024v-30h240v-66h-240v-30h240v-80h30v80h482v-80h30v80h242v30h-242v66h242zM752 262h-482v66h482v-66zM0 70h1024v-30h-1024v30zM352 198h176v-30h-176v30zM480 134h176v-30h-176v30zM416 134h32v-30h-32v30zM320 134h32v-30h-32v30zM656 198h32v-30h-32v30zM48 214h32v-30h-32v30zM32 166h144v-30h-144v30zM704 134h272v-30h-272v30z" />
<glyph unicode="&#xe903;" glyph-name="credit-card" d="M0 767.624v-158.31h208.408v-480.94h607.186v480.94h208.406v158.31h-1024zM577.128 158.434h-338.662v515.006h338.662v-515.006zM689.346 158.434h-82.16v515.006h82.16v-515.006zM785.534 158.434h-66.13v515.006h66.13v-515.006zM993.942 639.374h-178.348v34.066h82.16v30.060h-769.504v-30.058h80.156v-34.066h-178.348v98.192h963.882v-98.194zM288.564 529.158h30.058v-256.5h-30.058v256.5zM352.688 400.908h30.058v-32.062h-30.058v32.062zM288.564 240.594h30.058v-32.062h-30.058v32.062zM352.688 465.034h30.058v-32.062h-30.058v32.062zM352.688 336.782h30.058v-128.25h-30.058v128.25z" />
<glyph unicode="&#xe904;" glyph-name="big-ben" d="M654 702v64h-37.506l-90.494 150.154v43.846h-30v-43.846l-88.494-150.154h-39.506v-64h-32v-350h32v-416h286v416h32v350h-32zM590 736h34v-34h-34v34zM512 881.846l69.506-115.846h-139.014l69.508 115.846zM560 736v-34h-34v34h34zM496 736v-34h-34v34h34zM398 736h34v-34h-34v34zM624-34h-226v386h226v-386zM656 382h-290v290h290v-290zM432 320h30v-272h-30v272zM496 320h30v-272h-30v272zM560 320h30v-272h-30v272zM432 16h30v-32h-30v32zM496 16h30v-32h-30v32zM560 16h30v-32h-30v32zM736 830h224v-30h-224v30zM992 830h32v-30h-32v30zM656 910h192v-30h-192v30zM0 766h224v-30h-224v30zM80 862h224v-30h-224v30zM336 862h32v-30h-32v30zM512 639c-61.206 0-111-49.796-111-111s49.796-111 111-111c61.206 0 111 49.796 111 111s-49.794 111-111 111zM512 447c-44.664 0-81 36.336-81 81s36.336 81 81 81c44.664 0 81-36.336 81-81s-36.336-81-81-81z" />
<glyph unicode="&#xe905;" glyph-name="ticket" d="M779.024 655.406l-25.552-27.256-25.552 27.256h-727.92v-414.81h727.92l25.552 27.256 25.552-27.256h244.976v414.81h-244.976zM993.942 270.654h-201.898l-30.058 32.062h-17.030l-30.058-32.062h-684.84v354.692h684.84l30.058-32.062h17.030l30.058 32.062h201.896v-354.692zM833.628 398.904v-94.184h126.246v94.184h-126.246zM929.816 334.778h-66.13v34.066h66.13v-34.066zM737.44 561.222h30.058v-32.062h-30.058v32.062zM737.44 497.096h30.058v-32.062h-30.058v32.062zM737.44 432.97h30.058v-32.062h-30.058v32.062zM737.44 368.846h30.058v-32.062h-30.058v32.062zM96.188 591.28h384.752v-30.058h-384.752v30.058zM96.188 527.154h160.314v-30.058h-160.314v30.058zM96.188 463.030h288.564v-30.058h-288.564v30.058zM288.564 527.154h32.062v-30.058h-32.062v30.058zM352.688 527.154h32.062v-30.058h-32.062v30.058zM416.814 463.030h32.062v-30.058h-32.062v30.058zM571.724 379.472l-21.256-21.254 21.438-21.436-21.438-21.436 21.256-21.252 42.688 42.688zM491.568 379.472l-21.258-21.254 21.438-21.436-21.438-21.436 21.258-21.252 42.688 42.688zM411.412 379.472l-21.258-21.254 21.438-21.436-21.438-21.436 21.258-21.252 42.686 42.688z" />
<glyph unicode="&#xe906;" glyph-name="pyramid" d="M735.006 83.172l-0.006 144h-75.118l95.080 96.326-138.612 223.674h-208.696l-139.768-225.246 95.656-94.754h-75.542v-144h-80v-126h190v48h226v-48h190v126h-78.994zM622 261.172v219.32l94.526-152.224-98.796-101.096h-43.73v34h48zM430 517.172h162v-34h-162v34zM430 453.172h162v-162h-162v162zM305.48 326.918l94.52 153.63v-219.378h48v-34h-41.828l-100.692 99.748zM368-12.828h-130v66h130v-66zM624 35.172h-226v48h-80v50h114v30h-114v34h160v64h66v-64h162v-66h-82v-30h82v-18h-82v-48zM784-12.828h-130v66h130v-66zM642.8 938.828l-224.406-191.848-96.772 129.028-214.834-215.336 79-79.5h707.022l-250.010 357.656zM562.61 831.082l-99.14-144.202-27.038 36.050 126.178 108.152zM149.212 661.172l116.034 116.034-77.356-154.71-38.678 38.676zM216.27 611.172l49 98h54.73v30h-39.73l42.292 85.084 73.006-97.592 26.432-35.492h-70v-30h92.5l37.5-50h-265.73zM519.5 611.172l-37.036 49.38 33.426 48.62h92.11v30h-71.484l103.596 150.684 38.278-54.684h-38.39v-30h59.39l91-130h-102.39v-30h123.39l23.8-34h-315.69zM432 83.18h96v-30h-96v30zM560 131.18h32v-30h-32v30zM464 163.18h32v-30h-32v30zM64 899.172h208v-30h-208v30zM0 899.172h32v-30h-32v30zM816 835.18h144v-30h-144v30zM992 835.18h32v-30h-32v30zM64 819.18h128v-30h-128v30zM720 899.172h128v-30h-128v30zM288 691.18h32v-30h-32v30zM640 739.18h32v-30h-32v30zM544 675.18h32v-30h-32v30zM384 883.18h80v-30h-80v30z" />
<glyph unicode="&#xe907;" glyph-name="atm" d="M176.344 960v-863.686h192.376v-160.314h286.56v160.314h192.376v863.686h-671.312zM625.222-33.942h-226.444v18.036h226.442v-18.036zM625.222 14.152h-226.444v18.036h226.442v-18.036zM625.222 62.246h-226.444v162.318h36.518c7.042-36.070 39.198-64.126 77.706-64.126s70.662 28.054 77.706 64.126h34.514v-162.318zM466.268 224.564h93.468c-6.362-18.036-24.902-34.066-46.734-34.066-21.83 0-40.368 16.030-46.734 34.066zM336.658 254.622v-30.058h32.062v-34.066h-66.13v98.192h418.818v-98.192h-66.128v34.066h34.066v30.058h-352.688zM817.596 126.372h-162.316v34.066h96.188v158.31h-478.936v-158.31h96.188v-34.066h-162.318v803.57h611.194v-803.57zM240.47 895.874v-286.56h543.060v286.56h-543.060zM320.626 639.374h-50.098v34.066h50.098v-34.066zM320.626 703.5h-50.098v34.066h50.098v-34.066zM320.626 767.624h-50.098v34.066h50.098v-34.066zM320.626 831.75h-50.098v34.066h50.098v-34.066zM673.316 639.374h-322.632v226.442h322.63v-226.442zM753.472 639.374h-50.098v34.066h50.098v-34.066zM753.472 703.5h-50.098v34.066h50.098v-34.066zM753.472 767.624h-50.098v34.066h50.098v-34.066zM753.472 831.75h-50.098v34.066h50.098v-34.066zM400.782 575.248v-222.434h222.434v222.434h-222.434zM464.908 382.872h-34.066v34.068h34.066v-34.068zM464.908 446.998h-34.066v34.066h34.066v-34.066zM464.908 511.124h-34.066v34.066h34.066v-34.066zM529.034 382.872h-34.066v34.068h34.066v-34.068zM529.034 446.998h-34.066v34.066h34.066v-34.066zM529.034 511.124h-34.066v34.066h34.066v-34.066zM593.158 382.872h-34.066v34.068h34.066v-34.068zM593.158 446.998h-34.066v34.066h34.066v-34.066zM593.158 511.124h-34.066v34.066h34.066v-34.066zM577.128 110.34h32.062v-30.058h-32.062v30.058zM416.814 110.34h32.062v-30.058h-32.062v30.058zM496.97 703.5h32.062v-30.058h-32.062v30.058zM400.782 703.5h32.062v-30.058h-32.062v30.058zM593.158 703.5h32.062v-30.058h-32.062v30.058z" />
<glyph unicode="&#xe908;" glyph-name="camera-3" d="M464.908 719.030v-96.188h-64.126v-64.126h-18.036v162.318c0 105.524-85.85 191.374-191.374 191.374s-191.372-85.85-191.372-191.374v-737.44h382.748v448.876h18.036v-64.126h64.126v-96.188h559.090v446.874h-559.092zM352.688 13.652h-322.63v34.066h322.63v-34.066zM352.688 77.776h-322.63v643.258c0 88.95 72.366 161.316 161.316 161.316s161.316-72.366 161.316-161.316v-643.258zM382.748 462.528v66.13h82.16v-66.13h-82.16zM993.942 302.216h-162.318v66.13h162.318v-66.13zM993.942 398.404h-192.376v-96.188h-306.6v96.188h-64.126v34.066h64.126v126.246h-64.126v34.066h64.126v96.188h498.974v-290.566zM192.376 736.062c-25.966 0-47.092-21.126-47.092-47.092s21.126-47.092 47.092-47.092 47.092 21.126 47.092 47.092c0 25.968-21.126 47.092-47.092 47.092zM192.376 671.938c-9.392 0-17.034 7.642-17.034 17.034 0 9.39 7.64 17.034 17.034 17.034s17.034-7.642 17.034-17.034c0-9.392-7.642-17.034-17.034-17.034zM192.376 511.624c-25.966 0-47.092-21.126-47.092-47.092s21.126-47.092 47.092-47.092 47.092 21.126 47.092 47.092c0 25.968-21.126 47.092-47.092 47.092zM192.376 447.5c-9.392 0-17.034 7.642-17.034 17.034 0 9.39 7.64 17.034 17.034 17.034s17.034-7.642 17.034-17.034c0-9.392-7.642-17.034-17.034-17.034zM191.374 800.188c-61.326 0-111.218-49.892-111.218-111.218v-224.438c0-61.326 49.892-111.218 111.218-111.218s111.218 49.892 111.218 111.218v224.438c-0.002 61.326-49.892 111.218-111.218 111.218zM272.532 464.532c0-44.752-36.41-81.158-81.158-81.158-44.752 0-81.158 36.408-81.158 81.158v148.51c22.044-21.694 49.168-35.288 81.158-35.288s61.12 13.594 81.158 35.288v-148.51zM192.376 607.812c-44.752 0-81.158 36.408-81.158 81.158 0 44.752 36.408 81.158 81.158 81.158s81.158-36.408 81.158-81.158c0-44.75-36.408-81.158-81.158-81.158zM176.344 125.87h32.062v-30.058h-32.062v30.058zM80.156 125.87h32.062v-30.058h-32.062v30.058zM272.532 125.87h32.062v-30.058h-32.062v30.058z" />
<glyph unicode="&#xe909;" glyph-name="action-camera" d="M344.674 847.78v-110.216h126.246v110.216h-126.246zM440.862 767.624h-66.13v50.098h66.13v-50.098zM681.33 848.782c-25.966 0-47.092-21.126-47.092-47.092s21.126-47.092 47.092-47.092c25.966 0 47.092 21.126 47.092 47.092s-21.124 47.092-47.092 47.092zM681.33 784.658c-9.392 0-17.034 7.64-17.034 17.034s7.64 17.034 17.034 17.034c9.392 0 17.034-7.64 17.034-17.034s-7.64-17.034-17.034-17.034zM408.798 720.532c-25.966 0-47.092-21.126-47.092-47.092s21.126-47.092 47.092-47.092c25.966 0 47.092 21.126 47.092 47.092 0 25.968-21.124 47.092-47.092 47.092zM408.798 656.408c-9.392 0-17.034 7.642-17.034 17.034s7.64 17.034 17.034 17.034 17.034-7.642 17.034-17.034-7.642-17.034-17.034-17.034zM663.296 895.874v64.126h-254.498v-64.126h-112.22v-160.314h-48.094v-110.216h48.094v-48.094h80.156v-64.126h64.126v-64.126h48.094v-226.438h-32.062v-94.184h32.062v-192.376h94.184v192.376h32.062v94.184h-32.062v226.442h48.094v64.126h64.126v64.126h80.156v318.62h-112.218zM296.58 655.406h-18.036v50.098h18.036v-50.098zM438.858 929.942h194.38v-34.066h-194.38v34.066zM553.080-33.942h-34.066v162.318h34.066v-162.318zM585.142 192.5v-34.066h-98.192v34.066h98.192zM519.014 222.56v226.442h34.066v-226.442h-34.066zM601.174 479.060h-130.254v34.066h130.254v-34.066zM665.3 543.186h-258.506v34.066h258.506v-34.066zM745.456 607.312h-418.818v258.504h258.504v-160.314h160.314v-98.19zM745.456 735.562h-130.254v130.254h130.254v-130.254zM617.206 671.436h32.062v-30.058h-32.062v30.058zM553.080 671.436h32.062v-30.058h-32.062v30.058zM681.33 671.436h32.062v-30.058h-32.062v30.058z" />
<glyph unicode="&#xe90a;" glyph-name="calendar" d="M80.156 575.248v-126.246h126.246v126.246h-126.246zM176.344 479.060h-66.128v66.13h66.13v-66.13zM657.284 575.248v-126.246h126.246v126.246h-126.246zM753.472 479.060h-66.13v66.13h66.13v-66.13zM464.908 575.248v-126.246h126.246v126.246h-126.246zM561.096 479.060h-66.13v66.13h66.13v-66.13zM272.532 575.248v-126.246h126.246v126.246h-126.246zM368.72 479.060h-66.13v66.13h66.13v-66.13zM80.156 398.904v-126.246h126.246v126.246h-126.246zM176.344 302.716h-66.128v66.13h66.13v-66.13zM657.284 398.904v-126.246h126.246v126.246h-126.246zM753.472 302.716h-66.13v66.13h66.13v-66.13zM272.532 398.904v-126.246h126.246v126.246h-126.246zM368.72 302.716h-66.13v66.13h66.13v-66.13zM464.908 398.904v-126.246h126.246v126.246h-126.246zM561.096 302.716h-66.13v66.13h66.13v-66.13zM80.156 222.56v-126.246h126.246v126.246h-126.246zM176.344 126.372h-66.128v66.128h66.13v-66.128zM272.532 222.56v-126.246h126.246v126.246h-126.246zM368.72 126.372h-66.13v66.128h66.13v-66.128zM863.686 643.374v172.344h-112.22v64.126h-110.216v-64.126h-66.13v64.126h-110.216v-64.126h-66.13v64.126h-110.216v-64.126h-66.13v64.126h-110.208v-64.126h-112.22v-799.562h1024v34.058l-160.314 593.16zM671.312 849.784h50.098v-34.066h-50.098v34.066zM494.966 849.784h50.098v-34.066h-50.098v34.066zM318.622 849.784h50.098v-34.066h-50.098v34.066zM142.278 849.784h50.098v-34.066h-50.098v34.066zM833.628 46.216h-803.57v579.13h803.57v-579.13zM833.628 655.406h-803.57v130.254h82.16v-96.188h96.188v30.058h-66.128v66.13h146.286v-96.188h96.188v30.058h-66.13v66.13h146.286v-96.188h96.188v30.058h-66.13v66.13h146.286v-96.188h96.188v30.058h-66.13v66.13h162.318v-130.254zM863.686 46.216v481.948l130.988-481.95h-130.988zM513.002 126.372h32.062v-30.058h-32.062v30.058zM641.252 190.498h32.062v-30.058h-32.062v30.058zM769.502 735.562h32.062v-30.058h-32.062v30.058zM64.126 735.562h32.062v-30.058h-32.062v30.058zM513.002 190.498h96.188v-30.058h-96.188v30.058zM705.378 190.498h32.062v-30.058h-32.062v30.058zM577.128 126.372h160.314v-30.058h-160.314v30.058z" />
<glyph unicode="&#xe90b;" glyph-name="plane" d="M885.27 543.186h-202.102l-56.632 130.254h60.806v94.184h-101.756l-62.73 144.282h-90.010v-368.72h-130.69l-135.29-45.096-78.31 127.256h-88.556v-18.238l47.432-158.106-47.432-158.106v-20.242h88.554l78.312 127.256 135.29-45.096h130.69v-368.72h90.010l62.73 144.282h101.756v94.184h-60.806l56.632 130.254h202.102l138.73 70.868v50.638l-138.73 68.866zM144.282 421.194l-72.524-120.482h-36.128l44.186 147.288-44.186 147.288h36.126l72.526-118.478v-55.616zM657.284 737.566v-34.066h-43.818l-14.81 34.066h58.628zM462.904 881.848h40.244l147.242-338.662h-187.486v338.662zM657.284 192.5v-34.066h-58.628l14.81 34.066h43.818zM993.942 442.258l-115.768-59.386h-214.712l-160.314-368.72h-40.244v368.72h-155.87l-132.694 44.9v42.458l132.694 42.896h571.142l115.766-57.382v-13.486zM208.408 286.684h192.376v-30.058h-192.376v30.058zM80.156 174.466h256.5v-30.058h-256.5v30.058zM144.282 286.684h32.062v-30.058h-32.062v30.058zM192.376 607.312h208.408v-30.058h-208.408v30.058zM144.282 703.5h176.344v-30.058h-176.344v30.058zM689.346 639.374h208.406v-30.058h-208.406v30.058zM705.378 270.654h32.062v-30.058h-32.062v30.058zM769.502 270.654h96.188v-30.058h-96.188v30.058zM80.156 703.5h32.062v-30.058h-32.062v30.058zM721.41 495.092h32.062v-30.058h-32.062v30.058zM625.222 495.092h32.062v-30.058h-32.062v30.058zM529.034 495.092h32.062v-30.058h-32.062v30.058zM432.846 495.092h32.062v-30.058h-32.062v30.058zM336.658 495.092h32.062v-30.058h-32.062v30.058z" />
<glyph unicode="&#xe90c;" glyph-name="cruise" d="M656 639h32v-30h-32v30zM336 639h32v-30h-32v30zM767.086 159l110.914 206.176v76.728l-96 52.364v178.732h64v94h-112v98h64v94h-574v-94h64v-98h-112v-94h64v-178.732l-96-52.364v-76.728l112.914-206.176h-256.914v-30h272v3.342l19.822-37.342h-131.822v-30h148.186l34.91-64h337.808l69.818 128h273.278v30h-256.914zM848 424.096v-29.828l-322 175.636v29.828l322-175.636zM511 642.086l-241-131.454v162.368h482v-162.368l-241 131.454zM254 895v34h514v-34h-514zM704 865v-98h-386v98h386zM206 703v34h610v-34h-610zM174 424.096l322 175.636v-29.828l-322-175.636v29.828zM429.89 31l82.11 32.844 82.11-32.844h-164.22zM665.208 35.872l-153.208 61.284-153.208-61.284-178.942 327.142 316.15 172.718v-198.732h30v198.732l317.148-172.718-177.94-327.142zM0-33h1024v-30h-1024v30zM240 31h32v-30h-32v30zM784 95h32v-30h-32v30zM848 95h128v-30h-128v30zM48 95h32v-30h-32v30zM32 31h144v-30h-144v30zM736 31h240v-30h-240v30zM400 831h32v-30h-32v30zM496 831h32v-30h-32v30zM592 831h32v-30h-32v30zM592 480c-25.916 0-47-21.084-47-47s21.084-47 47-47 47 21.084 47 47-21.084 47-47 47zM592 416c-9.372 0-17 7.628-17 17s7.628 17 17 17c9.372 0 17-7.628 17-17s-7.628-17-17-17zM432 480c-25.916 0-47-21.084-47-47s21.084-47 47-47 47 21.084 47 47-21.084 47-47 47zM432 416c-9.374 0-17 7.628-17 17s7.626 17 17 17 17-7.628 17-17c0-9.372-7.626-17-17-17z" />
<glyph unicode="&#xe90d;" glyph-name="hot-air-balloon" d="M880 863h-133.514c-60.472 60-143.272 96-234.486 96-113.782 0-214.478-56-275.054-144h-172.946v-30h154.304c-16.598-30-28.674-62-35.336-98h-118.968v-30h114.626c-1.066-10-1.626-21.366-1.626-32.5 0-74.576 24.506-143.78 65.872-199.506l179.86-329.994h-38.732v-30h32v-128h190v128h34v30h-38.732l179.86 329.994c41.366 55.726 65.872 124.93 65.872 199.506 0 78.988-27.496 152.5-73.396 208.5h106.396v30zM512 930c27.24 0 55.154-31.224 76.582-84.796 22.074-55.186 34.824-128.204 36.276-206.204h-225.716c1.452 78 14.202 151.018 36.276 206.204 21.428 53.572 49.342 84.796 76.582 84.796zM442.812 239l-20.76 62.78c28.636-7.992 58.798-12.030 89.948-12.030s61.314 3.914 89.948 11.906l-20.76-62.656h-138.376zM571.188 209l-38-114h-42.376l-38 114h118.376zM512 320c-27.24 0-55.154 30.724-76.582 84.296-16.182 40.454-27.352 90.248-32.736 144.656 26.252-31.128 65.506-50.952 109.318-50.952s83.066 19.824 109.318 50.952c-5.384-54.408-16.554-104.202-32.736-144.656-21.428-53.572-49.342-84.296-76.582-84.296zM403.358 609h217.282c-13.512-46-57.084-82-108.642-82-51.556 0-95.128 36-108.64 82zM208.79 657h79.21v30h-74.442c24.508 118 115.398 208.782 231.010 234.974-13.75-16.684-26.236-38.458-37.006-65.378-23.344-58.36-36.842-134.24-38.408-215.596h-0.154c0-0.334-0.022 0-0.026-2h-161.602c0.294 8 0.776 14 1.418 18zM362.82 609c-12.196-28-41.136-50-74.82-50s-62.624 22-74.82 50h149.64zM214.444 557.944c19.602-17.38 45.368-27.944 73.556-27.944 33.002 0 62.672 14.498 83.024 37.44 4.652-65.524 17.222-125.992 36.54-174.286 10.77-26.922 23.256-48.944 37.006-65.628-114.264 25.888-204.38 116.104-230.126 230.418zM316.752 352.446c21.452-15.44 44.798-28.65 69.612-38.726l24.824-74.72h-32.83l-61.606 113.446zM394.722 209h26.466l38-114h-2.284l-62.182 114zM576-33h-130v98h130v-98zM567.096 95h-2.284l38 114h26.466l-62.182-114zM645.64 239h-32.83l24.824 74.97c24.816 10.076 48.16 22.786 69.614 38.226l-61.608-113.196zM579.432 327.526c13.75 16.684 26.236 38.708 37.006 65.628 19.318 48.294 31.888 108.762 36.54 174.286 20.35-22.942 50.020-37.44 83.022-37.44 28.188 0 53.954 10.564 73.556 27.944-25.746-114.314-115.862-204.53-230.124-230.418zM736 559c-33.684 0-62.624 22-74.82 50h149.64c-12.196-28-41.136-50-74.82-50zM816.628 639h-161.602c-0.004 2-0.026 1.666-0.026 2h-0.156c-1.568 81.356-15.064 157.486-38.408 215.846-10.77 26.922-23.256 48.444-37.006 65.128 131.128-29.708 230.464-142.974 237.198-282.974zM288 799h32v-30h-32v30zM752 703h32v-30h-32v30zM720 735h32v-30h-32v30zM912 863h32v-30h-32v30zM864 735h160v-30h-160v30zM0 687h32v-30h-32v30z" />
<glyph unicode="&#xe90e;" glyph-name="motorbike" d="M871.786 494.259l87.382 58.59v198.27h-206.25v-68.296l27.822-27.822h-50.578l-16.020 32.040h-57.342v-30.036h38.778l16.020-32.040h99.18l22.24-22.242v-21.6l-25.82 25.82h-286.063l-48.058-64.078h-95.346l-16.020 32.040h-107.402v144.176h-254.31v-174.212h80.098v-43.764l76.034-18.884c-63.128-26.518-107.322-88.976-107.322-161.626 0-96.614 78.726-175.714 175.34-175.714 91.554 0 167.044 71.588 174.69 159.694h1.65v-80.098h245.796l38.936 33.444c25.43-66.884 90.384-112.792 163.818-112.792 96.614 0 174.964 78.726 174.964 175.34-0.004 88.728-66.556 162.382-152.216 173.79zM782.954 695.263v25.82h146.178v-152.158l-66.080-44.054v90.296l-80.098 80.096zM863.052 320.593v79.682c38.046-7.066 66.582-40.094 66.582-79.684 0-44.718-36.132-81.098-80.848-81.098-44.718 0-81.226 36.38-81.226 81.098 0 2.734 0.028 5.466 0.298 8.18l65.158 55.558v-63.736h30.036zM30.036 689.041h194.238v-34.042h-194.238v34.042zM30.036 574.901v50.062h194.238v-50.062h-194.238zM224.274 174.914c-80.052 0-145.678 65.376-145.678 145.428 0 74.98 57.57 137.114 129.658 144.65v-34.308c-54.066-7.36-95.616-53.91-95.616-110.092 0-61.28 50.106-111.636 111.386-111.636 56.184 0 102.986 41.55 110.342 95.616h34.308c-7.54-72.088-69.42-129.658-144.4-129.658zM352.429 400.689v-66.080h-114.14v66.080h114.14zM238.29 430.725v34.042h114.14v-34.042h-114.14zM303.955 304.571c-7.066-36.044-40.096-65.58-79.682-65.58-44.716 0-81.6 36.63-81.6 81.35 0 39.586 29.536 72.866 65.58 79.934v-95.702h95.702zM635.279 254.511h-204.754v80.098h-48.058v160.196h-156.348l-115.986 29.748v20.314h233.014l16.020-32.040h128.928l48.058 64.078h258.603l38.258-38.26v-114.968l-197.736-169.166zM849.034 175.416c-64.514 0-121.158 42.97-139.206 103.83l29.308 24.798c8.016-53.46 54.24-94.588 109.898-94.588 61.28 0 110.636 49.854 110.636 111.136 0 56.184-40.55 102.736-96.618 110.092v34.31c74.090-7.54 130.66-69.42 130.66-144.4 0-80.052-64.626-145.178-144.678-145.178zM464.567 382.667v-110.134h133.594l132.162 110.134h-265.755zM587.285 302.569h-92.684v50.062h152.756l-60.072-50.062zM576.703 446.751h32.040v-30.036h-32.040v30.036zM672.821 446.751h32.040v-30.036h-32.040v30.036zM480.585 446.751h32.040v-30.036h-32.040v30.036z" />
<glyph unicode="&#xe90f;" glyph-name="camera-2" d="M975.906 543.186v192.376h-607.186v-48.094h-66.13v48.094h-158.308v-48.094h-96.188v-144.282h-48.094v-94.184h48.094v-288.564h927.812v288.564h48.094v94.184h-48.094zM48.094 479.060h-18.036v34.066h18.036v-34.066zM174.34 705.502h98.192v-18.036h-98.192v18.036zM78.152 561.222h290.568v-21.98c-30.058-38.074-47.594-86.642-47.594-138.834 0-55.422 20.792-105.706 54.326-145.784h-297.3v306.598zM78.152 190.498v34.066h328.58c18.090-14.028 38.44-24.046 60.412-34.066h-388.992zM351.686 400.908c0 106.628 86.75 193.378 193.378 193.378s193.378-86.75 193.378-193.378c0-106.628-86.75-193.378-193.378-193.378s-193.378 86.75-193.378 193.378zM945.848 190.498h-322.864c21.972 10.020 42.32 20.040 60.412 34.066h262.45v-34.066zM945.848 254.622h-231.172c33.534 40.078 53.826 89.862 53.826 145.284 0 41.292-11.272 81.158-30.884 113.222h208.23v-258.506zM945.848 543.186h-229.476c-41.020 50.098-103.086 80.658-171.808 80.658-55.424 0-105.706-19.79-145.784-53.324v20.76h-320.628v66.13h320.626v48.094h547.068v-162.318zM993.942 479.060h-18.036v34.066h18.036v-34.066zM545.064 560.22c-87.846 0-159.312-71.466-159.312-159.312s71.466-159.312 159.312-159.312 159.312 71.466 159.312 159.312-71.466 159.312-159.312 159.312zM545.064 271.656c-71.27 0-129.252 57.984-129.252 129.252 0 71.27 57.984 129.252 129.252 129.252s129.252-57.984 129.252-129.252c0.002-71.27-57.982-129.252-129.252-129.252zM785.534 687.468v-126.246h142.278v126.246h-142.278zM897.754 591.28h-82.16v66.13h82.16v-66.13zM881.722 318.748h32.062v-30.058h-32.062v30.058zM817.596 318.748h32.062v-30.058h-32.062v30.058zM561.096 495.092h32.062v-30.058h-32.062v30.058zM593.158 463.030h32.062v-30.058h-32.062v30.058zM176.344 527.154h32.062v-30.058h-32.062v30.058zM240.47 527.154h32.062v-30.058h-32.062v30.058z" />
<glyph unicode="&#xe910;" glyph-name="hotel" d="M320 647v-94h94v94h-94zM384 583h-34v34h34v-34zM608 647v-94h94v94h-94zM672 583h-34v34h34v-34zM464 647v-94h94v94h-94zM528 583h-34v34h34v-34zM320 503v-94h94v94h-94zM384 439h-34v34h34v-34zM608 503v-94h94v94h-94zM672 439h-34v34h34v-34zM464 503v-94h94v94h-94zM528 439h-34v34h34v-34zM320 359v-94h94v94h-94zM384 295h-34v34h34v-34zM608 359v-94h94v94h-94zM672 295h-34v34h34v-34zM464 359v-94h94v94h-94zM528 295h-34v34h34v-34zM942 23v416h-160v272h-64v34h64v158h-542v-158h64v-34h-64v-272h-160v-416h-80v-30h1024v30h-82zM240 183h-66v34h66v-34zM240 311h-66v34h66v-34zM240 375h-96v-94h96v-34h-96v-94h96v-130h-130v386h130v-34zM782 345h66v-34h-66v34zM782 217h66v-34h-66v34zM270 775v98h482v-98h-482zM688 745v-34h-354v34h354zM496 23h-50v114h50v-114zM576 23h-50v114h50v-114zM576 167h-130v18h130v-18zM752 23h-146v192h-190v-192h-146v658h482v-658zM912 23h-130v130h96v94h-96v34h96v94h-96v34h130v-386zM400 839h32v-30h-32v30zM496 839h32v-30h-32v30zM592 839h32v-30h-32v30z" />
<glyph unicode="&#xe911;" glyph-name="translator" d="M545.064 846.884v-397.986l101.46 79.364h377.476v318.622h-478.936zM993.942 558.32h-357.962l-60.856-46.882v305.386h418.818v-258.504zM0 446.1v-318.622h379.48l99.456-79.364v397.986h-478.936zM448.876 110.654l-58.852 46.884h-359.966v258.504h418.818v-305.388zM163.080 546.748l-40.232 40.234-21.256-21.256 74.752-74.752 74.754 74.752-21.256 21.256-36.024-36.026c19.090 150.29 147.76 266.87 303.152 266.87v30.060c-173.426 0-316.554-132.214-333.89-301.138zM849.66 405.234l-74.754-74.752 21.256-21.256 36.024 36.026c-19.092-150.29-147.762-266.87-303.152-266.87v-30.058c173.426 0 316.554 132.212 333.89 301.136l40.232-40.234 21.256 21.256-74.752 74.752zM144.282 365.94h256.5v-30.058h-256.5v30.058zM80.156 301.814h256.5v-30.058h-256.5v30.058zM80.156 237.69h192.376v-30.058h-192.376v30.058zM368.72 301.814h32.062v-30.058h-32.062v30.058zM80.156 365.94h32.062v-30.058h-32.062v30.058zM753.472 766.722h192.376v-30.058h-192.376v30.058zM625.222 702.598h320.626v-30.058h-320.626v30.058zM689.346 638.472h160.314v-30.058h-160.314v30.058zM625.222 638.472h32.062v-30.058h-32.062v30.058zM625.222 766.722h32.062v-30.058h-32.062v30.058zM689.346 766.722h32.062v-30.058h-32.062v30.058z" />
<glyph unicode="&#xe912;" glyph-name="flight" d="M512 704.25c-185.262 0-335.984-150.724-335.984-335.984s150.722-335.984 335.984-335.984c185.26 0 335.984 150.724 335.984 335.984s-150.724 335.984-335.984 335.984zM495.954 672.446v-129.668h-102.496c5.418 16.046 11.098 31.34 18.028 45.198 23.846 47.692 54.378 77.37 84.468 84.47zM366.752 382.308c1.082 48.14 7.136 92.27 17.642 130.382h111.558v-130.382h-129.2zM495.954 352.22v-130.382h-111.558c-10.504 40.118-16.56 84.246-17.642 130.382h129.2zM425.296 661.126c-14.728-15.802-28.27-36.044-40.222-59.946-8.926-17.852-16.704-36.338-23.272-58.404h-100.192c39.268 56.166 96.722 98.524 163.686 118.35zM242.94 512.69h110.438c-9.96-40.118-15.686-84.246-16.714-130.382h-130.186c2.286 48.14 15.228 92.27 36.462 130.382zM206.476 352.22h130.186c1.028-44.13 6.756-88.258 16.714-130.382h-110.436c-21.234 40.116-34.176 84.246-36.464 130.382zM261.61 191.75h100.192c6.568-20.058 14.346-39.8 23.272-57.65 11.952-23.902 25.494-44.142 40.222-59.946-66.964 19.824-124.418 63.436-163.686 117.596zM495.954 64.086v0c-30.090 7.098-60.624 35.776-84.47 83.466-6.928 13.858-12.61 30.154-18.026 44.196h102.496v-127.662zM817.524 382.308h-130.186c-1.030 46.136-6.756 90.264-16.714 130.382h110.438c21.232-38.112 34.174-82.242 36.462-130.382zM762.39 542.778h-100.192c-6.568 22.064-14.346 40.804-23.272 58.654-11.952 23.902-25.494 43.64-40.222 59.444 66.964-19.826 124.418-61.934 163.686-118.098zM526.042 672.446c32.094-7.098 61.624-36.778 85.47-84.47 6.93-13.858 13.614-29.152 19.032-45.198h-104.502v129.668zM526.042 512.69h113.564c10.504-38.112 16.56-82.24 17.642-130.382h-131.206v130.382zM526.042 352.22h131.206c-1.082-46.136-7.134-90.264-17.642-130.382h-113.564v130.382zM526.044 64.088v127.662h104.5c-5.416-14.042-12.102-30.336-19.030-44.196-23.846-47.692-53.376-76.368-85.47-83.466zM598.702 74.404c14.73 15.802 28.27 35.542 40.222 59.444 8.926 17.85 16.704 37.842 23.272 57.902h100.192c-39.266-54.16-96.72-97.52-163.686-117.346zM781.060 221.838h-110.438c9.96 42.124 15.686 86.252 16.714 130.382h130.186c-2.286-46.136-15.228-90.266-36.462-130.382zM576.188 462.542h32.094v-30.088h-32.094v30.088zM736.658 462.542h32.094v-30.088h-32.094v30.088zM447.812 157.65h32.094v-30.088h-32.094v30.088zM239.2 286.026h32.094v-30.088h-32.094v30.088zM271.294 318.12h32.094v-30.088h-32.094v30.088zM859.75 625.066c-54.194 73.268-128.45 126.734-214.744 154.61l-9.25-28.63c80.278-25.936 149.368-75.684 199.802-143.874 51.432-69.534 78.618-152.148 78.618-238.908 0-221.762-180.416-402.178-402.178-402.178s-402.176 180.418-402.176 402.18c0 86.762 27.186 169.374 78.62 238.912 50.438 68.188 119.528 117.94 199.81 143.874l-9.25 28.63c-86.294-27.876-160.552-81.342-214.75-154.61-55.294-74.754-84.52-163.556-84.52-256.804 0-115.464 44.964-224.014 126.608-305.66 81.648-81.644 190.198-126.608 305.66-126.608 115.46 0 224.014 44.964 305.66 126.606 81.644 81.646 126.606 190.196 126.606 305.66 0 93.248-29.224 182.050-84.516 256.8zM614.51 895.812h-49.092l-80.234 64.188h-83.506l48.142-64.188h-27.87l-32.094 32.094h-38.324v-84.46l41.91-41.91h72.424l-48.142-64.188h83.506l80.234 64.188h88.998v38.324l-55.952 55.952zM474.628 929.912l42.624-34.1h-29.826l-25.574 34.1h12.776zM570.912 831.624l-80.234-64.188h-12.776l48.142 64.188h-120.14l-24.286 24.284v37.686l27.87-27.87h192.562l34.102-34.1h-65.24z" />
<glyph unicode="&#xe913;" glyph-name="charger" d="M920.196 815.576v48.14h-94.276v-48.14h-16.046v-134.422l48.14-32.094v-377.076c0-94.61-42.678-179.32-110.358-235.474 28.104 39.266 44.916 87.33 44.916 139.192 0 132.174-107.404 239.702-239.578 239.702s-239.638-107.53-239.638-239.702c0-51.862 16.092-99.924 44.196-139.192-67.682 56.154-111.33 140.864-111.33 235.474v208.612h128.376v176.518h96.282v32.094h112.33v78.228h-112.33v18.052h112.33v78.23h-112.33v32.094h-96.282v64.188h-286.84v-479.404h128.376v-208.612c0-183.748 148.78-333.494 331.962-335.926 1.502-0.038 3.262-0.058 4.774-0.058s2.644 0.020 4.148 0.058c183.182 2.434 331.084 152.178 331.084 335.926v377.078l48.142 32.094v134.42h-16.048zM470.88 833.63h82.24v-18.052h-82.24v18.052zM470.88 737.348h82.24v-18.052h-82.24v18.052zM310.41 929.912h34.1v-64.188h96.282v-178.524h-96.282v-176.518h-34.1v419.23zM117.846 510.684v419.228h162.476v-419.228h-162.476zM553.12-33.912c-80.188 0-145.426 65.238-145.426 145.426s65.238 145.426 145.426 145.426c80.188 0 145.426-65.238 145.426-145.426s-65.236-145.426-145.426-145.426zM553.12 287.028c-96.78 0-175.514-78.734-175.514-175.514 0-24.838 5.198-48.484 14.544-69.918-30.352 36.37-48.644 83.142-48.644 134.106 0 115.58 94.032 209.614 209.614 209.614s209.614-94.034 209.614-209.614c0-50.966-18.292-97.736-48.644-134.106 9.348 21.434 14.544 45.080 14.544 69.918 0 96.78-78.734 175.514-175.514 175.514zM856.008 833.63h34.1v-18.052h-34.1v18.052zM906.154 697.258l-33.098-22.064-33.096 22.064v88.23h66.194v-88.23zM151.946 737.348h30.088v-32.094h-30.088v32.094zM151.946 641.066h30.088v-32.094h-30.088v32.094zM151.946 833.63h30.088v-32.094h-30.088v32.094z" />
<glyph unicode="&#xe914;" glyph-name="laptop" d="M448.876 575.248h32.062v-30.058h-32.062v30.058zM545.064 575.248h32.062v-30.058h-32.062v30.058zM641.252 575.248h32.062v-30.058h-32.062v30.058zM352.688 575.248h32.062v-30.058h-32.062v30.058zM240.47 895.874v-414.81h543.060v414.81h-543.060zM753.472 511.124h-482.944v354.692h482.944v-354.692zM176.344 960v-1024h671.312v1024h-671.312zM625.222-33.942h-226.444v114.224h226.442v-114.224zM817.596-33.942h-162.316v144.282h-286.56v-144.282h-162.318v466.912h34.066v-16.032h543.060v16.032h34.066v-466.912zM817.596 463.030h-64.126v-16.032h-482.942v16.032h-64.126v466.912h611.194v-466.912zM240.47 350.81v-222.434h543.060v222.434h-543.060zM655.28 320.752h34.066v-34.066h-34.066v34.066zM527.030 320.752h34.066v-34.066h-34.066v34.066zM527.030 256.626h34.066v-34.066h-34.066v34.066zM462.904 320.752h34.066v-34.066h-34.066v34.066zM462.904 256.626h34.066v-34.066h-34.066v34.066zM398.778 320.752h34.066v-34.066h-34.066v34.066zM398.778 256.626h34.066v-34.066h-34.066v34.066zM304.596 158.434h-34.066v34.066h34.066v-34.066zM304.596 222.56h-34.066v34.066h34.066v-34.066zM304.596 286.684h-34.066v34.066h34.066v-34.066zM368.72 158.434h-34.066v34.066h34.066v-34.066zM368.72 222.56h-34.066v34.066h34.066v-34.066zM368.72 286.684h-34.066v34.066h34.066v-34.066zM625.222 158.434h-226.444v34.066h226.442v-34.066zM625.222 222.56h-34.066v34.066h34.066v-34.066zM625.222 286.684h-34.066v34.066h34.066v-34.066zM689.346 158.434h-34.066v34.066h34.066v-34.066zM753.472 158.434h-34.066v34.066h34.066v-34.066zM753.472 222.56h-98.192v34.066h98.192v-34.066zM753.472 286.684h-34.066v34.066h34.066v-34.066zM705.378 30.184h32.062v-30.058h-32.062v30.058zM737.44 62.246h32.062v-30.058h-32.062v30.058zM288.564 398.904h400.782v-30.058h-400.782v30.058zM721.41 398.904h32.062v-30.058h-32.062v30.058z" />
<glyph unicode="&#xe915;" glyph-name="beach-chair" d="M192 703h32v-30h-32v30zM224 671h32v-30h-32v30zM1001.27 159l-128.002 256h-91.36c0.688 4 1.090 5.898 1.090 9 0 21.504-17.496 39-39 39h-176c-21.504 0-39-17.496-39-39 0-3.102 0.402-5 1.090-9h-119.582l-12.364 34h95.858v78h-124.22l-68.362 187.998c-11.31 31.104-41.148 52.002-74.246 52.002h-149.486c-15.316 0-29.708-6.99-38.496-19.538-8.788-12.546-10.908-28.38-5.674-42.776l110.182-303.374-120.968-242.312h-22.73v-30h1024v30h-22.73zM886.728 321l17-34h-206.458l-17 34h206.458zM854.728 385l17-34h-206.458l-17 34h206.458zM568 433h176c4.962 0 9-4.038 9-9s-4.038-9-9-9h-176c-4.962 0-9 4.038-9 9s4.038 9 9 9zM61.71 714.442c-1.922 5.284-1.174 11.204 2.050 15.81 3.226 4.606 8.3 6.748 13.924 6.748h149.486c20.53 0 39.038-12.962 46.050-32.256l64.634-177.744h-208.074l-68.070 187.442zM140.688 497h323.312v-18h-316.766l-6.546 18zM170.506 415l-12.364 34h208.078l12.364-34h-208.078zM343.73 385l-49-98h-110.46l49 98h110.46zM56.27 159l113 226h30.458l-113-226h-30.458zM120.27 159l49 98h110.458l-49-98h-110.458zM264.27 159l113 226h30.458l-113-226h-30.458zM328.27 159l113 226h173.458l113-226h-399.458zM712.27 257h206.458l17-34h-206.458l-17 34zM761.27 159l-17 34h206.458l17-34h-206.458z" />
<glyph unicode="&#xe916;" glyph-name="location-1" d="M328.34 78.138h160.156v-30.030h-160.156v30.030zM232.242 670.718v-350.342h350.342v350.342h-350.342zM312.322 350.404h-50.048v210.206h50.048v-210.206zM312.322 590.64h-50.048v50.048h50.048v-50.048zM424.43 350.404h-82.080v82.080h82.080v-82.080zM424.43 462.514h-82.080v98.096h82.080v-98.096zM552.556 350.404h-98.096v82.080h98.096v-82.080zM552.556 462.514h-98.096v34.034h98.096v-34.034zM552.556 526.576h-98.096v34.034h98.096v-34.034zM552.556 590.64h-210.206v50.048h210.206v-50.048zM712.712 960c-78.928 0-143.14-64.714-143.14-143.64 0-5.164 0.58-9.51 1.726-17.518h-355.070c-25.942 0-48.046-20.104-48.046-46.046v-768.75c0-25.942 22.106-48.046 48.046-48.046h384.376c25.942 0 46.044 22.106 46.044 48.046v659.816c28.028-42.71 53.302-75.914 53.588-76.29l12.226-15.842 12.102 15.842c0.324 0.43 32.866 43.492 64.878 94.674 44.024 70.39 66.378 122.412 66.378 154.614 0 78.928-64.18 143.14-143.108 143.14zM310.32 768.814h194.19v-16.016c0-9.384-6.632-18.018-16.016-18.018h-160.156c-9.382 0-18.018 8.634-18.018 18.018v16.016zM616.618-15.954c0-9.382-6.634-18.018-16.016-18.018h-384.374c-9.384 0-18.018 8.636-18.018 18.018v20.214c6.006-2.056 12.018-4.198 18.018-4.198h384.376c6 0 12.012 2.142 16.016 4.198v-20.214zM616.618 48.11c0-9.382-6.634-18.018-16.016-18.018h-384.374c-9.384 0-18.018 8.636-18.018 18.018v704.688c0 9.384 8.634 16.016 18.018 16.016h64.062v-16.016c0-25.942 22.106-48.046 48.046-48.046h160.156c25.942 0 46.044 22.106 46.044 48.046v16.016h45.344c7.98-20.020 20.72-46.53 36.736-76.202v-644.502zM712.71 601.91c-39.998 55.306-113.108 166.432-113.108 214.95 0 62.368 50.742 113.11 113.11 113.11s113.11-50.742 113.11-113.11c0-48.488-73.116-159.632-113.112-214.95zM712.712 879.922c-34.772 0-63.062-28.29-63.062-63.062s28.29-63.062 63.062-63.062c34.772 0 63.062 28.29 63.062 63.062s-28.29 63.062-63.062 63.062zM712.712 783.828c-18.214 0-33.032 14.818-33.032 33.032s14.818 33.032 33.032 33.032c18.214 0 33.032-14.818 33.032-33.032s-14.82-33.032-33.032-33.032zM296.31 270.326h32.032v-30.030h-32.032v30.030zM488.498 270.326h32.032v-30.030h-32.032v30.030zM392.404 270.326h32.032v-30.030h-32.032v30.030z" />
<glyph unicode="&#xe917;" glyph-name="water" d="M735.718 280.674c0 22.782-10.65 43.080-27.36 56.11 16.708 13.030 27.548 33.328 27.548 56.11 0 23.986-12.414 45.222-30.656 58.116 18.366 14.508 29.716 36.952 29.716 62.12v149.39l-143.818 187.264h31.6v110.216h-222.436v-110.216h33.602l-145.82-187.264v-149.394c0-25.168 12.322-47.61 30.688-62.12-18.242-12.894-29.936-34.128-29.936-58.116 0-22.782 10.902-43.080 27.61-56.11-16.708-13.030-27.422-33.328-27.422-56.11 0-23.986 11.474-45.222 29.716-58.116-18.366-14.508-30.656-36.952-30.656-62.12v-128.25c0-43.646 36.512-80.156 80.156-80.156h80.156v1.318c13.342-10.24 30.014-17.35 48.094-17.35h32.062c18.080 0 34.752 7.108 48.094 17.35v-1.318h80.156c43.646 0 78.152 36.512 78.152 80.156v128.25c0 25.168-11.32 47.61-29.686 62.12 18.244 12.896 30.44 34.132 30.44 58.12zM430.372 879.844v50.098h162.318v-50.098h-162.318zM471.838 849.784h81.384l137.192-178.348h-355.768l137.192 178.348zM664.83 320.752c22.652 0 41.080-18.428 41.080-41.080s-18.428-41.080-41.080-41.080h-40.078v-30.058h32.062c27.072 0 48.094-21.022 48.094-48.094v-128.25c0-27.072-21.020-50.098-48.094-50.098h-56.36c4.65 12.024 7.264 22.268 7.264 34.066h-30.058c0-27.072-22.024-50.098-49.096-50.098h-32.064c-27.070 0-49.096 23.024-49.096 50.098h-30.058c0-11.8 2.614-22.044 7.264-34.066h-56.36c-27.070 0-50.098 23.024-50.098 50.098v128.25c0 27.072 23.026 48.094 50.098 48.094h160.314v30.058h-168.328c-22.652 0-41.080 18.428-41.080 41.080s18.428 41.080 41.080 41.080h168.328v30.058h-168.328c-22.652 0-41.080 18.428-41.080 41.080s18.428 41.080 41.080 41.080h168.328v30.058h-160.314c-27.070 0-50.098 23.024-50.098 50.098v128.25h386.756v-128.25c0-27.072-21.020-50.098-48.094-50.098h-32.062v-30.058h40.078c22.652 0 41.080-18.428 41.080-41.080s-18.428-41.080-41.080-41.080h-40.078v-30.058h40.078zM400.32 735.562h32.062v-30.058h-32.062v30.058zM432.384 767.624h32.062v-30.058h-32.062v30.058zM560.634 350.81h32.062v-30.058h-32.062v30.058zM560.634 463.030h32.062v-30.058h-32.062v30.058zM560.634 238.592h32.062v-30.058h-32.062v30.058z" />
<glyph unicode="&#xe918;" glyph-name="key" d="M320.813 414.47h32.032v-30.030h-32.032v30.030zM352.843 446.5h32.032v-30.030h-32.032v30.030zM735.237 751.189c-7.452 116.394-104.748 208.811-222.989 208.811-123.082 0-223.467-100.136-223.467-223.217v-65.714c-88.086-7.642-160.155-82.99-160.155-174.519 0-66.316 38.038-126.638 96.094-156.339v-74.098l26.314-25.814-31.782-32.032 32.158-32.032-31.97-32.032 31.562-32.032-26.282-25.814v-59.404l70.718-90.956h18.724l68.716 90.956v313.247c60.058 29.698 96.094 90.022 96.094 156.347 0 91.532-70.068 166.879-160.155 174.519v65.714c0 106.524 87.166 193.187 193.689 193.187 101.71 0 185.055-79.008 192.407-178.871-89.334-7.894-159.875-83.122-159.875-174.471v-432.42h350.341v432.422c-0.006 91.696-70.326 167.147-160.139 174.561zM304.797 577.627c9.384 0 17.016-7.636 17.016-17.016 0-9.382-7.634-17.016-17.016-17.016-9.384 0-17.016 7.636-17.016 17.016 0 9.382 7.632 17.016 17.016 17.016zM449.436 496.55c0-57.722-34.436-109.956-87.342-133.069l-9.254-3.934v-322.311l-49.048-63.288-49.048 63.288v36.688l38.75 38.25-31.782 32.032 32.158 32.032-31.97 32.032 31.562 32.032-38.72 38.25v81.002l-8.502 3.934c-52.906 23.12-87.342 75.352-87.342 133.065 0 74.962 57.806 136.827 129.875 144.365v-35.728c-18.018-6.282-31.53-23.884-31.53-44.576 0-25.942 21.354-47.046 47.296-47.046s46.67 21.104 46.67 47.046c0 20.692-12.386 38.294-32.406 44.576v35.728c74.078-7.542 130.631-69.408 130.631-144.367zM721.201 657.705c9.384 0 17.016-7.636 17.016-17.016 0-9.382-7.634-17.016-17.016-17.016s-17.016 7.636-17.016 17.016c0 9.382 7.634 17.016 17.016 17.016zM865.343 174.235h-290.283v34.034h290.283v-34.034zM865.343 238.299h-290.283v338.329c0 74.962 58.056 136.827 130.127 144.365v-35.728c-18.018-6.282-31.53-23.884-31.53-44.576 0-25.942 21.354-47.046 47.296-47.046s46.67 21.104 46.67 47.046c0 20.692-12.386 38.294-32.406 44.576v35.728c74.072-7.538 130.127-69.404 130.127-144.365v-338.329zM641.123 560.612h30.030v-288.281h-30.030v288.281zM705.185 560.612h30.030v-160.155h-30.030v160.155zM705.185 304.363h30.030v-32.032h-30.030v32.032zM769.249 560.612h30.030v-32.032h-30.030v32.032zM705.185 368.424h30.030v-32.032h-30.030v32.032zM769.249 496.55h30.030v-224.217h-30.030v224.217z" />
<glyph unicode="&#xe919;" glyph-name="gps" d="M0 799.686v-703.374h1024v703.374h-1024zM993.942 126.372h-963.884v643.256h963.882v-643.256zM336.658 350.81h32.062v-30.058h-32.062v30.058zM384.752 190.498h32.062v-30.058h-32.062v30.058zM609.19 190.498h32.062v-30.058h-32.062v30.058zM801.566 350.81h32.062v-30.058h-32.062v30.058zM865.69 350.81h32.062v-30.058h-32.062v30.058zM64.126 735.562v-510.998h895.75v510.998h-895.75zM302.59 705.502h434.85v-226.442h-199.118l-41.35 82.702-41.352-82.702h-153.028v226.442zM208.408 254.622h-114.224v98.192h114.224v-98.192zM208.408 382.872h-114.224v322.63h114.224v-322.63zM272.532 254.622h-34.066v450.88h34.066v-450.88zM480.94 254.622h-178.348v194.38h138l-41.854-82.202 82.2 41.852v-154.030zM466.452 434.516l30.52 61.038 30.518-61.038-30.518 15.26-30.52-15.26zM929.816 254.622h-418.818v154.028l83.202-41.85-40.85 82.202h376.466v-194.38zM929.816 479.060h-162.316v98.192h162.318v-98.192zM929.816 607.312h-162.316v98.192h162.318v-98.192zM448.876 190.498h128.25v-30.058h-128.25v30.058zM496.97 623.342h32.062v-30.058h-32.062v30.058zM593.158 623.342h32.062v-30.058h-32.062v30.058zM400.782 623.342h32.062v-30.058h-32.062v30.058zM144.282 559.218h32.062v-30.058h-32.062v30.058zM112.22 591.28h32.062v-30.058h-32.062v30.058z" />
<glyph unicode="&#xe91a;" glyph-name="baggage-1" d="M641.252 174.466h32.062v-30.058h-32.062v30.058zM673.316 206.528h32.062v-30.058h-32.062v30.058zM977.91 511.124h-66.13v160.314h-336.656v128.248h-238.466v-128.25h-336.658v-575.124h911.78v256.5h66.13c25.966 0 46.090 22.128 46.090 48.094v64.126c0 25.968-20.124 46.092-46.090 46.092zM366.716 769.628h178.348v-34.066h-178.348v34.066zM366.716 705.502h178.348v-34.066h-178.348v34.066zM80.156 126.372h-50.098v515.006h50.098v-515.006zM144.282 126.372h-34.066v210.41h34.066v-210.41zM144.282 366.842h-34.066v34.066h34.066v-34.066zM144.282 430.966h-34.066v210.412h34.066v-210.412zM737.44 126.372h-563.1v515.006h563.1v-515.006zM801.566 126.372h-34.066v210.41h34.066v-210.41zM801.566 366.842h-34.066v34.066h34.066v-34.066zM801.566 430.966h-34.066v210.412h34.066v-210.412zM881.722 126.372h-50.098v515.006h50.098v-194.38h-32.062v-94.184h32.062v-226.442zM993.942 400.908c0-9.39-6.64-18.036-16.032-18.036h-98.192v34.068h98.192c6.004 0 12.024 2.132 16.032 4.188v-20.22zM977.91 446.998h-66.13v34.066h66.13c9.39 0 17.034-7.642 17.034-17.034 0-9.39-7.644-17.032-17.034-17.032zM328.642 287.686c-30.386 0-55.108-24.722-55.108-55.108s24.722-55.108 55.108-55.108c30.386 0 55.108 24.722 55.108 55.108s-24.722 55.108-55.108 55.108zM328.642 207.53c-13.812 0-25.048 11.236-25.048 25.048s11.236 25.048 25.048 25.048 25.048-11.236 25.048-25.048-11.236-25.048-25.048-25.048zM569.112 608.314c-30.386 0-55.108-24.722-55.108-55.108s24.722-55.108 55.108-55.108c30.386 0 55.108 24.722 55.108 55.108 0 30.384-24.724 55.108-55.108 55.108zM569.112 528.156c-13.812 0-25.048 11.236-25.048 25.048s11.236 25.048 25.048 25.048 25.048-11.236 25.048-25.048-11.236-25.048-25.048-25.048zM551.808 382.872l-47.092-94.184h129.796l47.092 94.184h-129.796zM615.932 318.748h-62.58l17.034 34.066h62.58l-17.034-34.066zM256.5 527.154v-94.184h158.31v94.184h-158.31zM384.752 463.030h-98.192v34.066h98.192v-34.066zM192.376 591.28h32.062v-30.058h-32.062v30.058zM224.438 623.342h32.062v-30.058h-32.062v30.058z" />
<glyph unicode="&#xe91b;" glyph-name="tent" d="M966.214 14.086l-433.304 433.876 101.546 101.456-21.14 21.244-101.354-101.378-101.374 101.4-21.204-21.21 101.398-101.392-432.994-433.996h-57.788v-30h1024v30h-57.786zM228.212 14.086l252.324 252.324-75.696-252.324h-176.628zM496 14.086h-59.84l59.84 203.8v-203.8zM496 326.3l-310.212-312.214h-85.576l395.788 397.788v-85.574zM526 14.086v269.788l269.786-269.788h-269.786zM838.214 14.086v0l-312.214 312.214v85.574l397.786-397.788h-85.572zM640 78.080h32v-30h-32v30zM576 78.080h32v-30h-32v30zM336 78.080h32v-30h-32v30zM579.652 758.086h39l-106.652 153.828-106.652-153.826h39l-65-94h116.652v-78h30v78h118.652l-65 93.998zM512 859.26l49.348-71.174h-98.696l49.348 71.174zM436.654 694.086l44.2 64h62.296l44.2-64h-150.696zM219.652 432.086h39l-106.652 153.828-106.652-153.826h39l-65-94h116.652v-78h30v78h118.652l-65 93.998zM152 533.26l49.348-71.174h-98.696l49.348 71.174zM76.652 368.086l44.202 64h62.294l44.202-64h-150.698zM1004.652 338.088v-0.002zM978.652 432.086l-106.652 153.828-106.652-153.826h39l-65-94h116.652v-78h30v78h118.65l-64.998 93.998h39zM872 533.26l49.348-71.174h-98.696l49.348 71.174zM947.348 368.086h-150.696l44.2 64h62.296l44.2-64z" />
<glyph unicode="&#xe91c;" glyph-name="pool" d="M688 526.5h336v-30h-336v30zM0 526.5h368v-30h-368v30zM1024 560.5v30h-242v50c0 43.56-35.44 79-79 79s-79-35.44-79-79v-50h-66v50c0 43.56-35.44 79-79 79s-79-35.44-79-79v-50h-400v-30h400v-354h-400v-30h1024v30h-370v354h370zM654 640.5c0 27.020 21.98 49 49 49s49-21.98 49-49v-50h-98v50zM430 640.5c0 27.020 21.98 49 49 49s49-21.98 49-49v-50h-98v50zM624 206.5h-194v34h194v-34zM624 270.5h-194v34h194v-34zM624 334.5h-194v34h194v-34zM624 398.5h-194v34h194v-34zM624 462.5h-194v34h194v-34zM624 526.5h-194v34h194v-34zM208 462.5h144v-30h-144v30zM336 350.5h32v-30h-32v30zM240 350.5h32v-30h-32v30zM720 462.5h32v-30h-32v30zM784 462.5h128v-30h-128v30zM48 478.5h32v-30h-32v30zM32 398.5h144v-30h-144v30zM704 382.5h272v-30h-272v30zM736 302.5h128v-30h-128v30zM928 254.5h32v-30h-32v30zM48 270.5h32v-30h-32v30zM160 270.5h192v-30h-192v30z" />
<glyph unicode="&#xe91d;" glyph-name="backpack" d="M400.782 126.372h32.062v-30.058h-32.062v30.058zM593.158 126.372h32.062v-30.058h-32.062v30.058zM496.97 126.372h32.062v-30.058h-32.062v30.058zM320.626 382.872v-222.434h382.748v222.434h-382.748zM673.316 190.498h-322.632v82.16h242.474v-16.032h30.058v16.032h50.098v-82.16zM673.316 302.716h-322.632v50.098h322.63v-50.098zM831.624 449.002v288.564h64.126v222.434h-767.5v-222.434h64.126v-288.564h32.062v-146.286h-96.188v-222.434h96.188v-48.094h64.126v-96.188h94.184v96.188h242.474v-96.188h94.184v96.188h80.156v48.094h96.188v222.434h-96.188v146.286h32.062zM224.438 110.34h-66.128v98.192h66.13v-98.192zM224.438 238.592h-66.128v34.066h66.13v-34.066zM735.436 929.942h130.254v-162.318h-130.254v162.318zM671.312 929.942h34.066v-226.442h-34.066v226.442zM671.312 673.44h34.066v-34.066h-34.066v34.066zM671.312 609.316h34.066v-25.838l-17.034-17.034-17.034 17.034v25.838zM382.748 929.942h258.504v-162.318h-258.504v162.318zM318.622 929.942h34.066v-226.442h-34.066v226.442zM318.622 673.44h34.066v-34.066h-34.066v34.066zM318.622 609.316h34.066v-25.838l-17.034-17.034-17.034 17.034v25.838zM158.31 767.624v162.318h130.254v-162.318h-130.254zM352.688-33.942h-34.066v66.13h34.066v-66.13zM689.346-33.942h-34.066v66.13h34.066v-66.13zM769.502 62.246h-515.004v386.756h515.006v-386.756zM865.69 110.34h-66.13v98.192h66.13v-98.192zM865.69 272.658v-34.066h-66.13v34.066h66.13zM222.434 479.060v258.506h66.13v-166.538l47.092-47.092 47.092 47.092v166.538h258.504v-166.538l47.092-47.092 47.092 47.092v166.538h66.13v-258.506h-579.132zM513.002 694.694l-85.378-85.378 85.378-85.378 85.378 85.378-85.378 85.378zM470.13 609.316l42.872 42.872 42.872-42.872-42.872-42.872-42.872 42.872zM769.502 847.78h32.062v-30.058h-32.062v30.058zM801.566 879.844h32.062v-30.058h-32.062v30.058z" />
<glyph unicode="&#xe91e;" glyph-name="coffee" d="M815.592 593.284v126.246h-64.126v96.188h-75.45l32.064 144.282h-96.92l-32.062-144.282h-306.566v-96.188h-64.126v-126.246h64.126v-146.286h-32.062v-286.56h32.062v-160.314h30.79l32.064-64.124h355.234l32.062 64.126h28.784v160.314h32.062v286.56h-32.062v146.286h64.126zM635.272 929.942h35.338l-25.384-114.224h-35.338l25.384 114.224zM302.592 785.66h418.818v-66.13h-418.818v66.13zM672.042-33.942h-318.080l-17.034 34.066h352.146l-17.032-34.066zM721.41 30.184h-418.818v130.254h418.818v-130.254zM753.472 416.94v-226.442h-482.944v226.442h482.944zM302.592 446.998v146.286h418.818v-146.286h-418.818zM238.466 623.342v66.13h547.068v-66.13h-547.068zM513.002 383.874c-43.646 0-79.154-35.51-79.154-79.154 0-43.646 35.51-79.154 79.154-79.154s79.154 35.51 79.154 79.154c0 43.646-35.508 79.154-79.154 79.154zM513.002 255.624c-27.070 0-49.096 22.022-49.096 49.096 0 27.072 22.026 49.096 49.096 49.096s49.096-22.022 49.096-49.096c0-27.072-22.026-49.096-49.096-49.096zM673.316 238.592h32.062v-30.058h-32.062v30.058zM705.378 270.654h32.062v-30.058h-32.062v30.058zM400.782 527.154h32.062v-30.058h-32.062v30.058zM593.158 527.154h32.062v-30.058h-32.062v30.058zM496.97 527.154h32.062v-30.058h-32.062v30.058z" />
<glyph unicode="&#xe91f;" glyph-name="map" d="M513.001 880.152c-34.78 0-63.076-28.296-63.076-63.076s28.296-63.078 63.076-63.078c34.78 0 63.078 28.296 63.078 63.078 0 34.78-28.298 63.076-63.078 63.076zM513.001 784.036c-18.22 0-33.040 14.822-33.040 33.040s14.822 33.040 33.040 33.040c18.218 0 33.040-14.822 33.040-33.040s-14.822-33.040-33.040-33.040zM595.669 670.897v0.002c40.146 66.080 60.508 114.93 60.508 145.678 0 78.946-64.23 143.424-143.176 143.424s-143.174-64.604-143.174-143.552c0-30.748 20.358-79.474 60.508-145.554h-285.783v-734.897h734.897v734.899h-283.779zM721.255 561.765c9.386 0 17.020-7.638 17.020-17.020 0-9.384-7.636-17.020-17.020-17.020s-17.020 7.638-17.020 17.020c0 9.382 7.634 17.020 17.020 17.020zM399.863 817.076c0 62.384 50.754 113.138 113.138 113.138s113.138-50.754 113.138-113.138c0-48.5-73.134-159.672-113.14-215.002-40.006 55.318-113.136 166.472-113.136 215.002zM366.823 640.861v0h82.1v1.636c27.366-41.976 51.818-74.4 52.098-74.774l11.98-15.846 11.98 15.344c0.278 0.37 24.486 33.586 51.682 73.636h128.572v-51.53c-18.022-6.284-32.040-23.89-32.040-44.586s14.018-38.302 32.040-44.586v-53.534h-338.411v194.24zM302.745 640.861h34.042v-194.238h-34.042v194.238zM174.59 640.861h98.12v-82.1h-98.12v82.1zM174.59 528.725h98.12v-82.1h-98.12v82.1zM272.707-33.962h-98.12v178.218h98.12v-178.218zM272.707 174.292h-98.12v178.218h98.12v-178.218zM336.787-33.962h-34.042v386.471h34.042v-386.471zM657.177-33.962h-290.353v178.218h133.632c6.284-18.022 23.89-32.040 44.586-32.040s38.302 14.018 44.586 32.040h67.55v-178.218zM849.41 174.292h-259.785c-4.69 14.018-16.552 25.88-30.57 30.57v147.648h290.353v-178.218zM562.061 160.276c0-9.384-7.636-17.020-17.020-17.020s-17.020 7.638-17.020 17.020c0 9.384 7.634 17.020 17.020 17.020 9.384 0 17.020-7.636 17.020-17.020zM529.021 204.861c-12.014-4.69-23.878-16.552-28.566-30.57h-133.632v178.218h162.198v-147.648zM849.41-33.962h-162.198v178.218h162.198v-178.218zM849.41 382.547h-674.821v34.042h674.823v-34.042zM849.41 446.625h-114.14v53.534c20.024 6.284 32.040 23.89 32.040 44.586s-12.014 38.302-32.040 44.586v51.53h114.14v-194.236zM753.299 30.126h32.040v-30.036h-32.040v30.036zM785.336 62.166h32.040v-30.036h-32.040v30.036zM416.887 558.771h32.040v-30.036h-32.040v30.036zM785.336 238.381h32.040v-30.036h-32.040v30.036zM785.336 318.477h32.040v-30.036h-32.040v30.036zM208.634 78.186h32.040v-30.036h-32.040v30.036z" />
<glyph unicode="&#xe920;" glyph-name="drink" d="M622 66.704c0 25.916-20.084 46-46 46h-50v213.47c20 6.276 32.5 23.86 32.5 44.532 0 15.706-7.5 29.126-19.37 37.666l297.084 296.334h-160l16.992 17.492c7.934-4.446 17.070-6.742 26.794-6.742 30.326 0 55 24.798 55 55.126 0 9.724-2.546 18.922-6.992 26.856l42.6 42.632-21.214 21.228-42.6-42.592c-7.934 4.446-17.070 6.996-26.794 6.996-30.326 0-55-24.67-55-54.998 0-9.724 2.546-19.358 6.992-27.292l-38.206-38.706h-267.576c-7.522 72-68.426 128.5-142.21 128.5-78.85 0-143-63.9-143-142.75s64.15-142.876 143-142.876c18.54 0 36.582 3.562 53.628 10.464l-11.258 27.838c-13.454-5.446-27.708-8.192-42.372-8.192-62.308 0-113 50.7-113 113.008s50.694 113 113.002 113 113-50.69 113-112.998c0-24.892-8.208-48.94-23.214-68.57l-24.354 24.354c8.56 12.626 13.568 27.848 13.568 44.218 0 43.56-35.44 79-79 79s-79-35.44-79-79c0-43.56 35.44-79 79-79 16.37 0 31.592 5.006 44.218 13.568l216.402-216.4c-11.87-8.54-20.12-22.46-20.12-38.166 0-20.672 13.5-38.256 31.5-44.532v-213.468h-48c-25.916 0-48-20.084-48-46v-2h-48v-30h320v30h-50v2zM720 795.704c13.786 0 25-11.214 25-25s-11.214-25-25-25-25 11.214-25 25 11.214 25 25 25zM224 641.704c-27.020 0-49 21.982-49 49s21.98 49 49 49 49-21.982 49-49c0-27.018-21.98-49-49-49zM646.216 674.704h117.572l-82-82h-117.572l82 82zM335.162 599.756c17.416 21.508 28.136 48.948 31.020 74.948h237.604l-82-82h-179.572l-7.052 7.052zM372.214 562.704h119.572l-22.394-22.144 21.216-20.962 43.606 43.106h117.572l-139.786-139.786-139.786 139.786zM495 370.704c0 9.374 7.628 17 17 17s17-7.626 17-17-7.628-17-17-17c-9.372 0-17 7.624-17 17zM592 64.704h-162v2c0 9.374 8.628 16 18 16h128c9.372 0 16-6.626 16-16v-2zM64 368.7h256v-30h-256v30zM128 496.7h224v-30h-224v30zM0 368.7h32v-30h-32v30zM704 496.7h256v-30h-256v30zM992 496.7h32v-30h-32v30zM640 368.7h256v-30h-256v30zM384 656.7h32v-30h-32v30zM448 656.7h32v-30h-32v30zM656 656.7h32v-30h-32v30zM528 512.7h32v-30h-32v30z" />
<glyph unicode="&#xe921;" glyph-name="beach" d="M560 262h464v-30h-464v30zM240 198h176v-30h-176v30zM336 134h32v-30h-32v30zM240 134h32v-30h-32v30zM720 198h32v-30h-32v30zM784 198h128v-30h-128v30zM48 214h32v-30h-32v30zM32 166h144v-30h-144v30zM640 134h336v-30h-336v30zM688 854h256v-30h-256v30zM624 854h32v-30h-32v30zM64 678h160v-30h-160v30zM128 806h224v-30h-224v30zM800 726h224v-30h-224v30zM0 678h32v-30h-32v30zM590 70v96h-64v354h256v16c0 144.396-112 262.766-256 270.578v49.422h-30v-49.422c-142-7.812-256-126.182-256-270.578v-16h256v-258h-496v-30h496v-66h-64v-96h-432v-30h1024v30h-434zM752.54 550h-97.75c-2.482 92-27.268 167.542-64.386 212.896 90-31.050 156.034-112.896 162.136-212.896zM526 774.762c54-15.522 95.326-110.762 98.772-224.762h-98.772v224.762zM271.46 550c6.102 100 72.136 181.846 162.136 212.896-37.118-45.354-61.904-120.896-64.386-212.896h-97.75zM399.228 550c3.446 114 44.772 209.24 96.772 224.762v-224.762h-96.772zM560 70h-98v66h98v-66z" />
<glyph unicode="&#xe922;" glyph-name="airport" d="M80 646h32v-30h-32v30zM144 646h32v-30h-32v30zM208 646h32v-30h-32v30zM272 646h32v-30h-32v30zM942 6v384h-640v106.79l80 64v149.21h-52.73l-32 64h-91.27v146h-30v-146h-89.27l-32-64h-54.73v-149.21l80-64v-490.79h-80v-30h1024v30h-82zM105.27 744h173.458l17-34h-207.458l17 34zM30 680h322v-98h-322v98zM176 6h-66v402h66v-402zM272 6h-66v402h66v-402zM272 438h-162v50h162v-50zM101.262 518l-42.5 34h266.478l-42.5-34h-181.478zM400 6h-98v66h98v-66zM400 102h-98v66h98v-66zM400 198h-98v66h98v-66zM400 294h-98v66h98v-66zM528 6h-98v66h98v-66zM528 102h-98v66h98v-66zM528 198h-98v66h98v-66zM528 294h-98v66h98v-66zM656 6h-98v66h98v-66zM656 102h-98v66h98v-66zM656 198h-98v66h98v-66zM656 294h-98v66h98v-66zM784 6h-98v66h98v-66zM784 102h-98v66h98v-66zM784 198h-98v66h98v-66zM784 294h-98v66h98v-66zM912 6h-98v66h98v-66zM912 102h-98v66h98v-66zM912 198h-98v66h98v-66zM912 294h-98v66h98v-66z" />
<glyph unicode="&#xe923;" glyph-name="bag" d="M576.126 334.778h32.062v-30.058h-32.062v30.058zM608.188 366.842h32.062v-30.058h-32.062v30.058zM423.828 399.906c-30.388 0-55.108-24.72-55.108-55.108s24.72-55.108 55.108-55.108 55.108 24.72 55.108 55.108-24.72 55.108-55.108 55.108zM423.828 319.75c-13.812 0-25.048 11.236-25.048 25.048s11.236 25.048 25.048 25.048 25.048-11.236 25.048-25.048-11.236-25.048-25.048-25.048zM518.744 495.092l-47.092-94.184h129.796l47.092 94.184h-129.796zM582.866 430.966h-62.58l17.034 34.066h62.58l-17.034-34.066zM383.75 607.312v-94.184h158.31v94.184h-158.31zM512 543.186h-98.192v34.066h98.192v-34.066zM944.846 270.654h-98.192v162.318h66.13c25.966 0 46.090 22.128 46.090 48.094v64.126c0 25.966-20.124 46.090-46.090 46.090h-66.13v64.126h-224.438v128.248h-222.436v-128.25h-224.438v-384.752h-96.188c-43.644 0-79.154-35.51-79.154-79.154s35.51-79.154 79.154-79.154h865.69c43.646 0 79.154 35.51 79.154 79.154s-35.508 79.154-79.152 79.154zM928.814 481.064c0-9.392-6.638-18.036-16.032-18.036h-98.192v34.066h98.192c6.004 0 12.024 2.132 16.032 4.188v-20.218zM846.654 561.222h66.13c9.392 0 17.034-7.64 17.034-17.034s-7.64-17.034-17.034-17.034h-66.13v34.068zM766.498 625.346h50.098v-98.192h-32.062v-94.184h32.062v-162.318h-50.098v354.694zM702.372 625.346h34.066v-354.692h-34.066v354.692zM429.84 753.596h162.318v-18.036h-162.318v18.036zM429.84 705.502h162.318v-50.098h-162.318v50.098zM349.682 625.346h322.63v-354.692h-322.63v354.692zM285.558 625.346h34.066v-354.692h-34.066v354.692zM205.402 625.346h50.098v-354.692h-50.098v354.692zM944.846 142.404h-865.692c-27.070 0-49.096 22.024-49.096 49.096s22.026 49.096 49.096 49.096h865.69c27.070 0 49.096-22.026 49.096-49.096s-22.024-49.096-49.094-49.096zM207.406 206.528h32.062v-30.058h-32.062v30.058zM111.218 206.528h32.062v-30.058h-32.062v30.058zM399.78 206.528h32.062v-30.058h-32.062v30.058zM303.592 206.528h32.062v-30.058h-32.062v30.058zM592.156 206.528h32.062v-30.058h-32.062v30.058zM495.968 206.528h32.062v-30.058h-32.062v30.058zM784.532 206.528h32.062v-30.058h-32.062v30.058zM880.72 206.528h32.062v-30.058h-32.062v30.058zM688.344 206.528h32.062v-30.058h-32.062v30.058z" />
<glyph unicode="&#xe924;" glyph-name="luggage" d="M344.544 304.238h30.080v-192.516h-30.080v192.516zM344.544 593.014h30.080v-192.516h-30.080v192.516zM456.846 304.238h30.080v-192.516h-30.080v192.516zM456.846 593.014h30.080v-192.516h-30.080v192.516zM569.148 304.238h30.080v-192.516h-30.080v192.516zM569.148 593.014h30.080v-192.516h-30.080v192.516zM344.544 368.412h30.080v-32.086h-30.080v32.086zM456.846 368.412h30.080v-32.086h-30.080v32.086zM569.148 368.412h30.080v-32.086h-30.080v32.086zM761.67 558.922h-34.092v98.264c0 25.986-20.138 46.124-46.124 46.124h-82.22v226.61h18.048v30.080h-288.774v-30.080h16.044v-226.608h-80.216c-25.986 0-48.13-20.138-48.13-46.124v-609.638c0-25.986 22.144-48.13 48.13-48.13h20.248c-2.060-4.010-3.202-10.534-3.202-16.544 0-25.986 21.14-46.876 47.126-46.876s47.126 20.764 47.126 46.752c0 6.010-1.144 12.66-3.202 16.67h200.928c-2.060-4.010-3.202-10.534-3.202-16.544 0-25.986 21.14-46.876 47.126-46.876s47.126 20.764 47.126 46.752c0 6.010-1.144 12.66-3.202 16.67h20.248c25.986 0 46.124 22.144 46.124 48.13v352.944h34.092c25.986 0 46.124 22.144 46.124 48.13v64.172c-0.002 25.984-20.14 46.122-46.126 46.122zM374.632 929.92h194.522v-98.264h-194.522v98.264zM374.632 801.574h194.522v-98.264h-194.522v98.264zM328.508-33.668c-9.4 0-17.046 7.646-17.046 17.046s7.646 17.046 17.046 17.046c9.4 0 17.046-7.646 17.046-17.046s-7.65-17.046-17.046-17.046zM617.282-33.668c-9.4 0-17.046 7.646-17.046 17.046s7.646 17.046 17.046 17.046c9.4 0 17.046-7.646 17.046-17.046s-7.646-17.046-17.046-17.046zM697.498 47.55c0-9.4-6.644-18.048-16.044-18.048h-417.12c-9.4 0-18.048 8.65-18.048 18.048v609.636c0 9.4 8.65 16.044 18.048 16.044h417.12c9.4 0 16.044-6.644 16.044-16.044v-162.436h-80.216v-94.254h80.216v-352.946zM777.714 448.626c0-9.4-6.644-18.048-16.044-18.048h-114.308v34.092h114.308c6.008 0 12.032 2.134 16.044 4.192v-20.236zM761.67 494.75h-34.092v34.092h34.092c9.4 0 17.046-7.646 17.046-17.046 0-9.398-7.646-17.046-17.046-17.046z" />
<glyph unicode="&#xe925;" glyph-name="stick" d="M753.472 895.874h-114.224v64.126h-254.496v-64.126h-112.22c-25.966 0-48.094-20.124-48.094-46.090v-224.44c0-25.966 22.128-48.094 48.094-48.094h80.156v-64.126h64.126v-64.126h48.094v-226.438h-32.062v-94.184h32.062v-192.376h94.184v192.376h32.062v94.184h-32.062v226.442h48.094v64.126h64.126v64.126h82.16c25.966 0 46.090 22.128 46.090 48.094v224.436c0 25.968-20.124 46.090-46.090 46.090zM414.81 929.942h194.38v-34.066h-194.38v34.066zM254.498 801.69h34.066v-128.25c0-0.554 0.552-2.004 0-2.004h-34.066v130.254zM529.034-33.942h-34.066v162.318h34.066v-162.318zM561.096 192.5v-34.066h-98.192v34.066h98.192zM494.966 222.56v226.442h34.066v-226.442h-34.066zM577.128 479.060h-130.254v34.066h130.254v-34.066zM641.252 543.186h-258.504v34.066h258.504v-34.066zM769.502 625.346c0-9.392-6.64-18.036-16.032-18.036h-480.94c-9.39 0-18.036 8.642-18.036 18.036v16.032h34.066c17.128 0 30.058 14.936 30.058 32.062v128.25c0 17.128-12.932 30.058-30.058 30.058h-34.066v18.036c0 9.392 8.644 16.032 18.036 16.032h480.94c9.39 0 16.032-6.638 16.032-16.032v-224.438zM721.41 801.69h30.058v-128.25h-30.058v128.25zM496.97 671.436h32.062v-30.058h-32.062v30.058zM593.158 671.436h32.062v-30.058h-32.062v30.058zM400.782 671.436h32.062v-30.058h-32.062v30.058z" />
<glyph unicode="&#xe926;" glyph-name="sign-post" d="M773.934 705.502l105.784 69.966v20.38l-105.784 67.962h-230.874v96.19h-94.184v-96.188h-272.532v-158.31h272.532v-66.13h-196.806l-107.788-67.962v-20.378l107.788-69.968h196.806v-66.13h-272.532v-158.31h272.532v-226.442h-80.156v-94.182h254.496v94.184h-80.156v226.442h230.872l105.784 69.966v20.378l-105.784 67.964h-230.872v66.13h304.594v158.31h-304.594v66.13h230.874zM478.936 929.942h34.066v-66.13h-34.066v66.13zM240.47 735.562h-34.066v98.192h34.066v-98.192zM240.47 286.684h-34.066v98.192h34.066v-98.192zM593.158 0.126v-34.066h-194.38v34.066h194.38zM478.936 30.184v226.442h34.066v-226.442h-34.066zM765.072 384.876l76.020-49.096-76.020-49.096h-494.544v98.192h494.544zM478.936 414.936v66.13h34.066v-66.13h-34.066zM783.53 609.316h34.066v-98.192h-34.066v98.192zM753.472 609.316v-98.192h-492.54l-76.018 49.096 76.018 49.096h492.54zM478.936 639.374v66.13h34.066v-66.13h-34.066zM270.528 735.562v98.192h494.544l76.020-49.096-76.020-49.096h-494.544zM577.128 575.248h32.062v-30.058h-32.062v30.058zM480.94 575.248h32.062v-30.058h-32.062v30.058zM384.752 575.248h32.062v-30.058h-32.062v30.058zM577.128 799.686h32.062v-30.058h-32.062v30.058zM480.94 799.686h32.062v-30.058h-32.062v30.058zM384.752 799.686h32.062v-30.058h-32.062v30.058zM577.128 350.81h32.062v-30.058h-32.062v30.058zM480.94 350.81h32.062v-30.058h-32.062v30.058zM384.752 350.81h32.062v-30.058h-32.062v30.058z" />
<glyph unicode="&#xe927;" glyph-name="location" d="M880.72 527.782c-79.004 0-143.28-64.276-143.28-143.28 0-32.236 22.344-84.306 66.414-154.766 32.042-51.234 64.554-94.338 64.878-94.768l11.988-15.86 11.988 15.86c0.324 0.428 32.836 43.532 64.878 94.768 44.070 70.46 66.414 122.532 66.414 154.768 0 79.006-64.276 143.278-143.28 143.278zM880.718 169.342c-40.034 55.36-113.22 166.598-113.22 215.16 0 62.43 50.792 113.222 113.222 113.222s113.222-50.792 113.222-113.222c0-48.532-73.188-159.788-113.224-215.16zM880.72 447.626c-34.806 0-63.124-28.318-63.124-63.124s28.318-63.124 63.124-63.124c34.806 0 63.124 28.318 63.124 63.124s-28.318 63.124-63.124 63.124zM880.72 351.438c-18.232 0-33.064 14.834-33.064 33.064s14.834 33.064 33.064 33.064c18.232 0 33.064-14.834 33.064-33.064s-14.832-33.064-33.064-33.064zM474.436 142.030c116.026 54.106 196.874 170.484 196.874 306.098 0 185.082-150.576 335.906-335.656 335.906s-335.654-150.95-335.654-336.030 150.576-336.032 335.656-336.032h448.876v30.058h-310.096zM249.038 741.202c-14.714-15.788-28.244-36.008-40.182-59.886-8.918-17.834-16.688-36.302-23.25-58.346h-100.096c39.23 56.108 96.628 98.424 163.528 118.232zM66.858 592.91h110.33c-9.95-40.078-15.67-84.164-16.698-130.254h-130.058c2.284 48.094 15.214 92.18 36.426 130.254zM30.432 432.598h130.058c1.028-44.086 6.75-88.172 16.698-130.254h-110.33c-21.212 40.076-34.142 84.162-36.426 130.254zM85.51 272.284h100.094c6.56-20.040 14.332-39.762 23.25-57.594 11.94-23.878 25.468-44.098 40.182-59.888-66.898 19.81-124.296 63.376-163.526 117.482zM319.624 144.746c-30.058 7.092-60.562 35.74-84.384 83.384-6.924 13.846-12.598 30.124-18.012 44.152h102.396v-127.536zM319.624 302.342h-111.45c-10.494 40.078-16.544 84.164-17.624 130.254h129.074v-130.254zM319.624 462.656h-129.074c1.080 48.094 7.128 92.18 17.624 130.254h111.45v-130.254zM319.624 622.968h-102.396c5.412 16.032 11.088 31.31 18.012 45.154 23.822 47.646 54.326 77.296 84.384 84.386v-129.54zM604.452 302.342h-110.33c9.95 42.082 15.67 86.168 16.698 130.254h130.058c-2.282-46.090-15.212-90.176-36.426-130.254zM640.88 462.656h-130.058c-1.028 46.090-6.75 90.176-16.698 130.254h110.33c21.212-38.074 34.142-82.16 36.426-130.254zM585.8 622.968h-100.094c-6.56 22.044-14.332 40.764-23.25 58.596-11.94 23.878-25.47 43.598-40.182 59.386 66.9-19.806 124.298-61.872 163.526-117.982zM349.682 752.512c32.062-7.092 61.564-36.742 85.386-84.386 6.924-13.846 13.6-29.122 19.014-45.154h-104.4v129.54zM349.682 592.91h113.454c10.494-38.074 16.544-82.16 17.624-130.254h-131.078v130.254zM349.682 432.598h131.078c-1.080-46.090-7.128-90.176-17.624-130.254h-113.454v130.254zM349.682 144.746v127.538h104.4c-5.412-14.028-12.090-30.308-19.014-44.152-23.82-47.646-53.322-76.294-85.386-83.386zM462.456 214.438c8.918 17.834 16.688 37.806 23.25 57.844h100.094c-39.228-54.106-96.626-97.424-163.528-117.232 14.716 15.792 28.246 35.51 40.184 59.388zM399.78 542.808h32.062v-30.058h-32.062v30.058zM560.094 542.808h32.062v-30.058h-32.062v30.058zM271.53 238.214h32.062v-30.058h-32.062v30.058zM63.124 366.464h32.062v-30.058h-32.062v30.058zM95.186 398.526h32.062v-30.058h-32.062v30.058zM816.594 142.026h32.062v-30.058h-32.062v30.058z" />
<glyph unicode="&#xe928;" glyph-name="camera-1" d="M849.66 463.030h-80.156c-25.966 0-48.094-20.124-48.094-46.090v-50.098h-34.066v226.442h48.094v336.658h50.098v30.058h-545.066v-30.058h48.094v-336.658h48.094v-226.442h-160.314c-25.966 0-48.094-20.124-48.094-46.090v-384.752h767.5v480.94c0 25.966-20.124 46.090-46.090 46.090zM318.622 623.342v306.6h386.756v-306.598h-386.756zM657.284 593.284v-34.066h-290.568v34.066h290.568zM384.752-33.942h-226.442v354.694c0 9.392 8.642 16.032 18.036 16.032h208.406v-370.726zM609.19-33.942h-194.38v434.85c0 9.392 8.642 16.032 18.036 16.032h160.314c9.39 0 16.032-6.638 16.032-16.032v-434.85zM593.158 446.998h-160.314c-25.966 0-48.094-20.124-48.094-46.090v-34.066h-18.036v162.318h290.568v-162.318h-18.036v34.066c0.002 25.966-20.12 46.090-46.088 46.090zM865.69-33.942h-226.442v370.724h112.22v80.158c0 9.392 8.644 16.032 18.036 16.032h80.156c9.39 0 16.032-6.64 16.032-16.032v-450.882zM809.582 423.954c-25.966 0-47.092-21.126-47.092-47.092s21.126-47.092 47.092-47.092c25.966 0 47.092 21.126 47.092 47.092s-21.126 47.092-47.092 47.092zM809.582 359.828c-9.39 0-17.034 7.64-17.034 17.034s7.642 17.034 17.034 17.034c9.39 0 17.034-7.64 17.034-17.034s-7.644-17.034-17.034-17.034zM272.532 111.342c-34.806 0-63.124-28.318-63.124-63.124s28.318-63.124 63.124-63.124c34.806 0 63.124 28.318 63.124 63.124 0 34.808-28.318 63.124-63.124 63.124zM272.532 15.154c-18.232 0-33.064 14.832-33.064 33.064s14.834 33.064 33.064 33.064c18.232 0 33.064-14.834 33.064-33.064s-14.832-33.064-33.064-33.064zM368.72 897.878h30.058v-240.47h-30.058v240.47zM432.846 897.878h30.058v-240.47h-30.058v240.47zM561.096 897.878h30.058v-240.47h-30.058v240.47zM496.97 897.878h30.058v-240.47h-30.058v240.47zM625.222 897.878h30.058v-240.47h-30.058v240.47zM593.158 112.344v30.058h-160.314v-30.058h16.032v-50.098h-16.032v-30.058h160.314v30.058h-18.036v50.098h18.036zM545.064 62.246h-66.13v50.098h66.13v-50.098zM657.284 110.34v-126.246h190.372v126.246h-190.372zM817.596 14.152h-130.254v66.13h130.254v-66.13zM769.502 62.246h32.062v-30.058h-32.062v30.058zM320.626 302.716h32.062v-30.058h-32.062v30.058zM256.5 302.716h32.062v-30.058h-32.062v30.058zM192.376 302.716h32.062v-30.058h-32.062v30.058z" />
<glyph unicode="&#xe929;" glyph-name="bunk-bed" d="M561.096 638.372h32.062v-30.058h-32.062v30.058zM641.252 638.372h32.062v-30.058h-32.062v30.058zM561.096 253.62h32.062v-30.058h-32.062v30.058zM641.252 253.62h32.062v-30.058h-32.062v30.058zM993.942 848.782v-146.286h-613.392c2.058 6.012 3.2 11.028 3.2 17.034 0 25.966-21.126 47.092-47.092 47.092h-240.47c-25.966 0-47.092-21.126-47.092-47.092 0-6.006 1.142-11.022 3.2-17.034h-22.238v146.286h-30.058v-801.566h30.058v112.22h755.476v-112.22h30.058v112.22h178.348v-112.22h30.060v801.566h-30.058zM96.188 736.564h240.47c9.392 0 17.034-7.64 17.034-17.034 0-9.392-7.64-17.034-17.034-17.034h-240.47c-9.392 0-17.034 7.64-17.034 17.034 0 9.392 7.642 17.034 17.034 17.034zM30.058 672.438h370.726v-98.192h-370.726v98.192zM400.782 189.496h-370.724v98.192h370.726v-98.192zM79.154 334.778c0 9.392 7.64 17.034 17.034 17.034h240.47c9.392 0 17.034-7.64 17.034-17.034 0-9.392-7.64-17.034-17.034-17.034h-240.47c-9.392 0.002-17.034 7.642-17.034 17.034zM785.534 189.496h-354.692v98.192h354.692v-98.192zM785.534 317.746h-404.984c2.058 6.012 3.2 11.028 3.2 17.034 0 25.966-21.126 47.092-47.092 47.092h-240.47c-25.966 0-47.092-21.126-47.092-47.092 0-6.006 1.142-11.022 3.2-17.034h-22.238v226.442h755.476v-226.442zM785.534 574.246h-354.692v98.192h354.692v-98.192zM993.942 189.496h-178.348v34.066h178.348v-34.066zM993.942 253.62h-178.348v34.066h178.348v-34.066zM993.942 317.746h-178.348v34.066h178.348v-34.066zM993.942 381.87h-178.348v34.066h178.348v-34.066zM993.942 445.996h-178.348v34.066h178.348v-34.066zM993.942 510.122h-178.348v34.066h178.348v-34.066zM993.942 574.246h-178.348v34.066h178.348v-34.066zM993.942 638.372h-178.348v34.066h178.348v-34.066z" />
<glyph unicode="&#xe92a;" glyph-name="money" d="M226.204 530.614l-40.232 40.232-21.254-21.254 74.752-74.752 74.75 74.752-21.254 21.254-36.024-36.024c19.090 150.29 147.76 266.87 303.152 266.87v30.058c-173.428 0-316.554-132.212-333.89-301.136zM784.532 421.16l-74.752-74.752 21.254-21.254 36.024 36.024c-19.090-150.29-147.762-266.87-303.152-266.87v-30.058c173.428 0 316.554 132.212 333.89 301.136l40.232-40.232 21.254 21.254-74.75 74.752zM223.436 446.998c-123.202 0-223.436-100.234-223.436-223.436s100.234-223.436 223.436-223.436 223.436 100.234 223.436 223.436-100.232 223.436-223.436 223.436zM416.232 237.59h-34.214c-3.072 34.066-16.026 62.994-35.86 86.94l24.164 23.912c25.91-30.25 42.664-68.77 45.91-110.852zM237.464 416.358c42.082-3.246 80.602-20.004 110.852-45.912l-23.912-24.164c-23.946 19.834-52.874 32.788-86.94 35.86v34.216zM207.406 416.358v-34.214c-32.062-3.072-61.99-16.024-85.938-35.86l-24.414 24.164c30.25 25.91 70.272 42.664 110.352 45.91zM76.552 348.442l24.164-23.912c-19.834-23.946-32.788-52.874-35.86-86.94h-34.216c3.246 42.082 20 80.6 45.912 110.852zM30.64 207.53h34.216c3.072-32.062 16.026-61.992 35.86-85.938l-24.164-24.414c-25.912 30.252-42.666 70.274-45.912 110.352zM207.406 30.766c-40.078 3.246-80.1 20.004-110.352 45.912l24.414 24.164c23.946-19.834 53.876-32.788 85.938-35.86v-34.216zM94.184 223.562c0 71.27 57.984 129.252 129.252 129.252s129.252-57.984 129.252-129.252-57.984-129.252-129.252-129.252-129.252 57.982-129.252 129.252zM237.464 30.766v34.216c34.066 3.072 62.992 16.024 86.94 35.86l23.912-24.164c-30.25-25.912-68.77-42.666-110.852-45.912zM370.322 97.178l-24.164 24.414c19.834 23.946 32.788 53.876 35.86 85.938h34.214c-3.246-40.078-20-80.1-45.91-110.352zM271.53 271.656v30.058h-34.066v18.036h-30.058v-18.036h-32.064v-94.184h64.126v-34.066h-64.126v-30.058h32.064v-16.032h30.058v16.032h32.062v94.182h-64.124v34.068zM287.562 237.588h32.062v-30.058h-32.062v30.058zM127.248 205.526h32.062v-30.058h-32.062v30.058zM800.564 895.874c-123.202 0-223.436-100.234-223.436-223.436s100.234-223.436 223.436-223.436 223.436 100.234 223.436 223.436-100.234 223.436-223.436 223.436zM993.36 686.466h-34.214c-3.072 34.066-16.026 62.994-35.86 86.94l24.164 23.912c25.91-30.25 42.664-68.77 45.91-110.852zM814.59 865.234c42.082-3.246 80.602-20.004 110.852-45.912l-23.912-24.162c-23.946 19.834-52.874 32.788-86.94 35.86v34.214zM784.532 865.234v-34.214c-32.062-3.072-61.99-16.026-85.938-35.86l-24.414 24.164c30.252 25.91 70.274 42.664 110.352 45.91zM653.678 797.318l24.164-23.912c-19.834-23.946-32.788-52.874-35.86-86.94h-34.214c3.246 42.082 20 80.602 45.91 110.852zM607.768 656.408h34.216c3.072-32.062 16.026-61.992 35.86-85.938l-24.164-24.414c-25.912 30.25-42.666 70.272-45.912 110.352zM784.532 479.642v0c-40.078 3.246-80.1 20.004-110.352 45.912l24.414 24.164c23.946-19.834 53.876-32.788 85.938-35.86v-34.216zM671.312 672.438c0 71.27 57.984 129.252 129.252 129.252s129.252-57.984 129.252-129.252-57.984-129.252-129.252-129.252-129.252 57.984-129.252 129.252zM814.59 479.642v34.216c34.066 3.072 62.992 16.024 86.94 35.86l23.912-24.164c-30.25-25.912-68.768-42.666-110.852-45.912zM947.448 546.056l-24.164 24.414c19.834 23.946 32.788 53.876 35.86 85.938h34.214c-3.244-40.080-19.998-80.102-45.91-110.352zM848.658 767.624c-35.36 0-66.256-19.038-82.67-49.096h-45.582v-30.058h34.622c-1.004-4.008-1.558-11.218-1.558-17.034s0.552-11.022 1.558-17.034h-34.622v-30.058h45.582c16.412-28.054 47.308-47.092 82.67-47.092v30.058c-17.404 0-33.22 7.014-44.918 17.034h44.918v30.058h-62.852c-1.474 6.012-2.274 11.14-2.274 17.034s0.802 13.026 2.274 17.034h62.852v30.058h-44.918c11.694 12.024 27.514 19.038 44.918 19.038v30.058zM864.688 686.466h32.062v-30.058h-32.062v30.058z" />
<glyph unicode="&#xe92b;" glyph-name="photo" d="M352.688 879.844v-192.376h-352.688v-671.312h671.312v192.376h352.688v671.312h-671.312zM641.252 46.216h-611.194v162.318h611.194v-162.318zM158.31 238.592v114.224c0 27.070 22.022 49.096 49.096 49.096 27.072 0 49.096-22.026 49.096-49.096v-114.224h-98.192zM382.748 238.592v114.224c0 27.070 22.024 49.096 49.096 49.096s49.096-22.026 49.096-49.096v-114.224h-98.192zM641.252 238.592h-130.254v114.224c0 43.646-35.51 79.154-79.154 79.154-43.646 0-79.154-35.51-79.154-79.154v-114.224h-66.13v114.224c0 43.646-35.51 79.154-79.154 79.154-43.646 0-79.154-35.51-79.154-79.154v-114.224h-98.194v418.818h611.194v-418.818zM993.942 238.592h-322.63v162.318h322.63v-162.318zM993.942 430.966h-322.63v256.5h-288.564v162.318h611.194v-418.818zM368.72 142.404h32.062v-30.058h-32.062v30.058zM464.908 142.404h32.062v-30.058h-32.062v30.058zM272.532 142.404h32.062v-30.058h-32.062v30.058zM176.344 142.404h32.062v-30.058h-32.062v30.058zM208.408 576.25c-34.806 0-63.124-28.318-63.124-63.124s28.318-63.124 63.124-63.124c34.806 0 63.124 28.318 63.124 63.124s-28.318 63.124-63.124 63.124zM208.408 480.062c-18.232 0-33.064 14.834-33.064 33.064 0 18.232 14.834 33.064 33.064 33.064 18.232 0 33.064-14.832 33.064-33.064 0-18.23-14.834-33.064-33.064-33.064zM432.846 576.25c-34.806 0-63.124-28.318-63.124-63.124s28.318-63.124 63.124-63.124c34.806 0 63.124 28.318 63.124 63.124s-28.318 63.124-63.124 63.124zM432.846 480.062c-18.232 0-33.064 14.834-33.064 33.064 0 18.232 14.834 33.064 33.064 33.064 18.232 0 33.064-14.832 33.064-33.064 0-18.23-14.832-33.064-33.064-33.064zM897.754 783.656h32.062v-30.058h-32.062v30.058zM929.816 815.718h32.062v-30.058h-32.062v30.058z" />
<glyph unicode="&#xe92c;" glyph-name="train" d="M0 223h160v-30h-160v30zM993.526 383.314l-332.17 271.686h-661.356v-30h650.646l80.666-66h-203.312v-222h462.544c1.602-4 1.456-9.044 1.456-14.328v-35.672h-992v-30h992v-34h-800v-30h830v129.672c0 23.792-10.060 45.578-28.474 60.642zM608 367h-50v162h50v-162zM638 367v162h129.98l198-162h-327.98zM304 511v-126h158v126h-158zM432 415h-98v66h98v-66zM64 511v-126h158v126h-158zM192 415h-98v66h98v-66zM256 719h336v-30h-336v30zM192 719h32v-30h-32v30zM96 783h208v-30h-208v30zM32 783h32v-30h-32v30zM0 143h1024v-30h-1024v30zM662.458 485.367l18.996 23.22 128.006-104.72-18.996-23.22-128.006 104.72zM742.451 485.39l18.996 23.22 58.665-47.993-18.996-23.22-58.665 47.993zM272 591h32v-30h-32v30zM368 591h32v-30h-32v30zM464 591h32v-30h-32v30zM176 591h32v-30h-32v30zM80 591h32v-30h-32v30z" />
<glyph unicode="&#xe92d;" glyph-name="cab" d="M576 815h32v-30h-32v30zM496 815h32v-30h-32v30zM416 815h32v-30h-32v30zM293.398 662.369l21.213 21.213 119.993-119.993-21.213-21.213-119.993 119.993zM373.38 662.397l21.213 21.213 47.999-47.999-21.213-21.213-47.999 47.999zM533.392 662.373l21.213 21.213 119.993-119.993-21.213-21.213-119.993 119.993zM613.394 662.38l21.213 21.213 47.999-47.999-21.213-21.213-47.999 47.999zM891.806 63c2.054 6 2.194 12.006 2.194 18v80h48v197.636l-106.944 122.364h106.944v110h-104.156l-20.496-51.24-53.468 227.24h-93.88v96h-318v-96h-91.88l-53.468-227.242-20.496 51.242h-106.156v-110h108.944l-108.944-122.364v-197.636h48v-80c0-5.994 2.14-12 4.194-18h-132.194v-30h1024v30h-132.194zM858.156 561h53.844v-50h-73.844l20 50zM110 511v50h55.844l20-50h-75.844zM912 287h-130v50h130v-50zM382 833h258v-66h-258v66zM283.88 737h456.24l56.942-242h-570.124l56.942 242zM214.806 465h594.388l85.75-98h-765.888l85.75 98zM110 337h130v-50h-130v50zM110 191v66h160v80h482v-80h160v-66h-274v96h-254v-96h-274zM608 257v-66h-194v66h194zM176 63c-9.374 0-18 8.626-18 18v80h18v-98zM224 63h-18v98h18v-98zM272 81c0-9.374-6.626-18-16-18h-2v98h18v-80zM299.806 63c2.054 6 2.194 12.006 2.194 18v80h418v-80c0-5.994 2.14-12 4.194-18h-424.388zM768 63c-9.372 0-18 8.626-18 18v80h18v-98zM816 63h-18v98h18v-98zM864 81c0-9.374-6.628-18-16-18h-2v98h18v-80z" />
<glyph unicode="&#xe92e;" glyph-name="camera" d="M753.472 382.872h32.062v-30.058h-32.062v30.058zM785.534 414.936h32.062v-30.058h-32.062v30.058zM633.264 911.906l-32.062 48.094h-176.398l-32.062-48.094h-248.46v-735.436h144.282v-240.47h446.872v240.47h144.282v735.436h-246.454zM440.89 929.942h144.228l12.024-18.036h-168.274l12.022 18.036zM174.34 625.346h147.802c-4.658-10.020-8.406-22.044-11.15-34.066h-136.652v34.066zM174.34 561.222h131.96c-0.458-4.008-0.704-11.298-0.704-17.034s0.244-11.022 0.704-17.034h-131.96v34.068zM705.378-33.942h-386.756v274.536h34.066v-240.47h318.622v240.47h34.066v-274.536zM382.748 30.184v210.41h258.504v-210.412h-258.504zM849.66 206.528h-114.224v64.126h-446.872v-64.126h-114.224v290.568h136.652c21.384-90.176 103.838-160.314 202.008-160.314s180.626 70.136 202.008 160.314h134.65v-290.568zM335.656 545.19c0 97.788 79.558 177.346 177.346 177.346 97.79 0 177.346-79.558 177.346-177.346s-79.558-177.346-177.346-177.346-177.346 79.556-177.346 177.346zM849.66 527.154h-129.956c0.458 6.012 0.704 11.298 0.704 17.034s-0.244 13.026-0.704 17.034h129.956v-34.068zM849.66 591.28h-134.65c-2.744 12.024-6.492 24.046-11.15 34.066h145.798v-34.066zM849.66 655.406h-160.314v-1.162c-36.61 58.986-101.962 98.352-176.344 98.352s-139.734-39.366-176.344-98.352v1.162h-162.318v226.442h675.32v-226.442zM208.408 847.78v-94.184h158.31v94.184h-158.31zM336.658 783.656h-98.192v34.066h98.192v-34.066zM705.378 847.78v-94.184h110.216v94.184h-110.216zM785.534 783.656h-50.098v34.066h50.098v-34.066zM513.002 688.47c-79.004 0-143.28-64.276-143.28-143.28s64.276-143.28 143.28-143.28 143.28 64.276 143.28 143.28-64.276 143.28-143.28 143.28zM513.002 431.968c-62.43 0-113.222 50.792-113.222 113.222s50.792 113.222 113.222 113.222 113.222-50.792 113.222-113.222-50.792-113.222-113.222-113.222zM224.438 318.748v-78.154h30.060v48.094h515.004v-48.094h30.060v78.154zM561.096 78.278h32.062v-30.058h-32.062v30.058zM593.158 110.34h32.062v-30.058h-32.062v30.058zM256.502 448c-25.966 0-47.092-21.126-47.092-47.092s21.126-47.092 47.092-47.092 47.092 21.126 47.092 47.092c-0.002 25.966-21.126 47.092-47.092 47.092zM256.502 383.874c-9.392 0-17.034 7.64-17.034 17.034 0 9.392 7.64 17.034 17.034 17.034s17.034-7.64 17.034-17.034c-0.002-9.392-7.642-17.034-17.034-17.034zM545.064 847.78h32.062v-30.058h-32.062v30.058zM448.876 847.78h32.062v-30.058h-32.062v30.058z" />
<glyph unicode="&#xe92f;" glyph-name="postcard" d="M833.628 270.654h32.062v-30.058h-32.062v30.058zM865.69 238.592h32.062v-30.058h-32.062v30.058zM0 767.624v-639.248h1024v639.248h-1024zM993.942 158.434h-963.884v579.132h963.882v-579.132zM496.97 705.502h30.058v-513.002h-30.058v513.002zM769.502 703.5v-158.31h158.31v158.31h-158.31zM897.754 575.248h-98.192v98.192h98.192v-98.192zM593.158 703.5h144.282v-30.058h-144.282v30.058zM96.188 703.5h80.156v-30.058h-80.156v30.058zM208.408 703.5h32.062v-30.058h-32.062v30.058zM96.188 639.374h160.314v-30.058h-160.314v30.058zM96.188 543.186h336.658v-30.058h-336.658v30.058zM96.188 479.060h336.658v-30.058h-336.658v30.058zM96.188 414.936h336.658v-30.058h-336.658v30.058zM96.188 350.81h336.658v-30.058h-336.658v30.058zM384.752 238.592h80.156v-30.058h-80.156v30.058zM320.626 238.592h32.062v-30.058h-32.062v30.058zM256.5 238.592h32.062v-30.058h-32.062v30.058zM657.284 639.374h80.156v-30.058h-80.156v30.058z" />
<glyph unicode="&#xe930;" glyph-name="baggage" d="M288.564 176.47h30.058v-32.062h-30.058v32.062zM288.564 272.658h30.058v-32.062h-30.058v32.062zM288.564 368.846h30.058v-32.062h-30.058v32.062zM288.564 465.034h30.058v-32.062h-30.058v32.062zM655.28 687.818v161.966h32.062v110.216h-350.684v-110.216h32.062v-162.318h-160.314v-703.374h96.188v-48.092h94.184v48.094h210.412v-48.094h94.184v48.094h112.22v529.034c-0.002 91.62-70.138 167.042-160.314 174.69zM366.716 879.844v50.098h290.568v-50.098h-290.568zM398.778 783.656v66.128h226.442v-66.13h-226.442zM625.222 753.596v-66.13h-226.444v66.13h226.444zM368.72-33.942h-34.066v18.036h34.066v-18.036zM368.72 14.152h-130.254v18.036h130.254v-18.036zM368.72 62.246h-130.254v595.394c74.144-7.546 130.254-69.478 130.254-144.512v-450.882zM673.316-33.942h-34.066v18.036h34.066v-18.036zM785.534 14.152h-386.756v18.036h386.756v-18.036zM785.534 62.246h-386.756v370.724h50.098v-48.094h94.184v48.094h98.192v-48.094h94.184v48.094h50.098v-370.724zM478.936 414.936v66.13h34.066v-66.13h-34.066zM671.312 414.936v66.13h34.066v-66.13h-34.066zM785.534 463.030h-50.098v48.094h-94.184v-48.094h-98.192v48.094h-94.184v-48.094h-50.098v50.098c0 60.38-29.68 114.224-76.266 144.282h318.74c80.11 0 144.282-64.172 144.282-144.282v-50.098zM480.94 352.814h30.058v-256.5h-30.058v256.5zM577.128 352.814h30.058v-256.5h-30.058v256.5zM673.316 352.814h30.058v-256.5h-30.058v256.5z" />
<glyph unicode="&#xe931;" glyph-name="airplane" d="M176.344 302.716h224.438v-30.058h-224.438v30.058zM689.346 190.498h256.5v-30.058h-256.5v30.058zM48.094 190.498h256.5v-30.058h-256.5v30.058zM112.22 302.716h32.062v-30.058h-32.062v30.058zM817.596 495.092h32.062v-30.058h-32.062v30.058zM721.41 495.092h32.062v-30.058h-32.062v30.058zM625.222 495.092h32.062v-30.058h-32.062v30.058zM529.034 495.092h32.062v-30.058h-32.062v30.058zM432.846 495.092h32.062v-30.058h-32.062v30.058zM336.658 495.092h32.062v-30.058h-32.062v30.058zM240.47 495.092h32.062v-30.058h-32.062v30.058zM886.032 543.186h-142.366l-272.532 272.532h-218.854l272.532-272.532h-374.306l-96.188 96.188h-54.318v-196.596l89.964-89.964h434.85l-272.534-272.532h218.854l272.532 272.532h280.334v104.518l-137.968 85.854zM324.846 785.66h133.836l242.474-242.474h-133.836l-242.474 242.474zM30.058 609.316h11.812l66.13-66.13h-77.94v66.13zM993.942 382.872h-262.726l-272.532-272.532h-133.836l272.532 272.532h-494.966l-72.356 72.354v57.902h847.354l116.53-72.456v-57.8zM192.376 623.342h208.408v-30.058h-208.408v30.058zM144.282 719.53h176.344v-30.058h-176.344v30.058zM657.284 687.468h208.406v-30.058h-208.406v30.058zM80.156 719.53h32.062v-30.058h-32.062v30.058zM625.222 190.498h32.062v-30.058h-32.062v30.058z" />
</font>
</defs>
</svg>
